<?xml version="1.0" encoding="UTF-8" standalone="no"?>
<!DOCTYPE svg PUBLIC "-//W3C//DTD SVG 1.1//EN" "http://www.w3.org/Graphics/SVG/1.1/DTD/svg11.dtd">
<svg width="100%" height="100%" viewBox="0 0 3125 3125" version="1.1" 
    xmlns="http://www.w3.org/2000/svg" 
    xmlns:xlink="http://www.w3.org/1999/xlink" 
    xmlns:cc="http://creativecommons.org/ns#"
    xmlns:rdf="http://www.w3.org/1999/02/22-rdf-syntax-ns#"    
    xml:space="preserve" xmlns:serif="http://www.serif.com/" 
    style="fill-rule:evenodd;clip-rule:evenodd;stroke-linejoin:round;stroke-miterlimit:2;">
    <metadata>
        <rdf:RDF>
            <cc:Work rdf:about="Rebel Loon Symbol - Minnesota/Twin Cities Protest Symbol 2026. Free use under a Creative Commons license.">
                <cc:license rdf:resource="http://creativecommons.org/publicdomain/zero/1.0/" />
            </cc:Work>
        </rdf:RDF>
    </metadata>
    <circle cx="1562.5" cy="1562.5" r="1562.5" style="fill:#002d5d;"/>
    <circle cx="1562.5" cy="1562.5" r="1395.833" style="fill:#52c9e8;"/>
    <g id="Loon">
        <g id="Body">
            <path id="path8305" d="M2811.611,1536.73c0.214,9.558 0.322,19.141 0.322,28.746c0,690.001 -560,1250 -1250,1250c-690,0 -1250,-559.999 -1250,-1250c0,-10.7 0.109,-21.433 0.376,-32.071c16.422,51.252 43.573,103.635 91.073,150.766c-61.346,-98.688 -82.886,-192.771 -82.663,-268.609c2.873,-24.496 6.442,-48.771 10.685,-72.806c14.673,62.385 42.287,128.848 101.144,187.248c-62.866,-101.133 -83.929,-197.431 -82.606,-274.213c7.915,-31.611 17.014,-62.739 27.248,-93.333c11.88,73.767 36.952,158.036 109.525,230.046c-72.516,-116.657 -89.411,-226.881 -80.485,-308.139c103.973,-253.471 287.729,-464.788 519.671,-602.777l0.649,0c-186.877,215.947 -300.218,476.07 -282.392,743.356c17.879,268.083 216.384,513.686 427.741,538.699l0,1.168c286.545,12.459 285.519,-152.102 275.331,-272.102c-15.785,-185.921 11.964,-373.275 128.974,-500.639c38.6,-42.016 100.029,-90.341 182.9,-67.338c78.822,21.879 143.702,61.17 164.84,72.672c-46.101,49.761 -32.368,116.186 -36.643,174.91c57.005,5.593 72.504,1.686 127.502,-27.218c0,0 4.593,95.62 -161.613,318.893c-46.645,62.66 12.23,313.282 298.775,300.823l0,-1.168c211.357,-25.013 409.862,-270.616 427.741,-538.699c17.825,-267.286 -95.515,-527.409 -282.392,-743.356l0.649,0c233.08,138.666 417.501,351.382 521.196,606.512c8.008,80.884 -9.463,189.524 -80.875,304.404c71.824,-71.267 97.122,-154.54 109.153,-227.758c10.437,31.402 19.679,63.364 27.673,95.831c0.381,75.979 -21.092,170.384 -82.659,269.427c57.994,-57.544 85.655,-122.917 100.49,-184.503c4.562,26.174 8.324,52.632 11.258,79.347c-1.502,74.166 -23.716,164.624 -82.582,259.322c46.473,-46.113 73.468,-97.252 89.993,-147.441Z" style="fill:#002d5d;"/>
        </g>
        <g id="Dots">
            <path d="M1407.706,1510.406c15.14,-1.992 28.961,8.005 30.843,22.312c1.883,14.307 -8.88,27.54 -24.021,29.532c-15.14,1.992 -28.961,-8.005 -30.843,-22.312c-1.883,-14.307 8.88,-27.54 24.021,-29.532Z" style="fill:#52c9e8;"/>
            <path d="M1495.964,1529.515c12.22,-1.608 23.373,6.448 24.891,17.98c1.518,11.531 -7.171,22.199 -19.391,23.807c-12.22,1.608 -23.373,-6.448 -24.891,-17.98c-1.518,-11.531 7.171,-22.199 19.391,-23.807Z" style="fill:#52c9e8;"/>
            <path d="M1565.881,1528.321c6.721,-0.885 12.908,3.947 13.808,10.782c0.9,6.835 -3.827,13.103 -10.548,13.988c-6.721,0.885 -12.908,-3.947 -13.808,-10.782c-0.9,-6.835 3.827,-13.103 10.548,-13.988Z" style="fill:#52c9e8;"/>
            <path d="M1400.855,1587.739c15.823,-2.082 30.294,8.566 32.294,23.764c2,15.198 -9.223,29.228 -25.046,31.31c-15.823,2.082 -30.294,-8.566 -32.294,-23.764c-2,-15.198 9.223,-29.228 25.046,-31.31Z" style="fill:#52c9e8;"/>
            <path d="M1494.864,1606.713c13.792,-1.815 26.379,7.278 28.092,20.292c1.713,13.015 -8.094,25.054 -21.885,26.869c-13.792,1.815 -26.379,-7.278 -28.092,-20.292c-1.713,-13.015 8.094,-25.054 21.885,-26.869Z" style="fill:#52c9e8;"/>
            <path d="M1582.566,1597.951c8.596,-1.131 16.51,5.048 17.66,13.791c1.151,8.743 -4.895,16.759 -13.491,17.89c-8.596,1.131 -16.51,-5.048 -17.66,-13.791c-1.151,-8.743 4.895,-16.759 13.491,-17.89Z" style="fill:#52c9e8;"/>
            <path d="M1372.391,1671.682c20.884,-2.748 39.949,11.042 42.546,30.777c2.597,19.735 -12.25,37.988 -33.134,40.737c-20.884,2.748 -39.949,-11.042 -42.546,-30.777c-2.597,-19.735 12.25,-37.988 33.134,-40.737Z" style="fill:#52c9e8;"/>
            <path d="M1488.088,1688.151c16.705,-2.198 31.953,8.815 34.027,24.58c2.075,15.764 -9.804,30.348 -26.509,32.546c-16.705,2.198 -31.953,-8.815 -34.027,-24.58c-2.075,-15.764 9.804,-30.348 26.509,-32.546Z" style="fill:#52c9e8;"/>
            <path d="M1592.294,1671.884c10.214,-1.344 19.616,5.998 20.983,16.385c1.367,10.387 -5.815,19.912 -16.029,21.256c-10.214,1.344 -19.616,-5.998 -20.983,-16.385c-1.367,-10.387 5.815,-19.912 16.029,-21.256Z" style="fill:#52c9e8;"/>
        </g>
        <g id="Beak">
            <path d="M1791.952,961.561c126.018,-85.278 239.48,-152.094 405.332,-209.985c-51.89,201.84 -148.641,307.002 -285.428,460.791c10.858,-33.124 16.743,-57.198 18.578,-80.486c6.956,-88.308 -50.556,-119.798 -138.481,-170.321Z" style="fill:#002d5d;"/>
            <path d="M1826.739,993.938c126.018,-85.278 148.344,-115.923 314.196,-173.814c-64.421,159.366 -94.4,171.071 -222.173,330.27c-18.221,-116.907 -46.642,-124.855 -92.023,-156.455Z" style="fill:#52c9e8;"/>
            <path d="M1826.739,1141.883c88.701,-114.22 157.558,-179.876 285.781,-288.585c-111.999,129.509 -173.674,216.207 -285.781,288.585Z" style="fill:#002d5d;"/>
        </g>
        <g id="Eye">
            <path d="M1610.51,1230.51c0,0 -23.274,-78.406 -15.681,-107.41c5.922,-22.623 29.097,-36.182 51.72,-30.26c22.623,5.922 36.182,29.097 30.26,51.72c-7.593,29.004 -66.298,85.949 -66.298,85.949Z" style="fill:#b2e8f5;"/>
            <circle cx="1635.787" cy="1133.281" r="33.732" style="fill:#a00;"/>
        </g>
    </g>
    <g id="Star">
        <path d="M1768.172,340.633l-149.449,206.239l149.449,206.239l-206.239,-149.449l-206.239,149.449l149.449,-206.239l-149.449,-206.239l206.239,149.449l206.239,-149.449Z" style="fill:#002d5d;"/>
        <path d="M1709.247,399.558l-106.749,147.314l106.749,147.314l-147.314,-106.749l-147.314,106.749l106.749,-147.314l-106.749,-147.314l147.314,106.749l147.314,-106.749Z" style="fill:#b2e8f5;"/>
        <path d="M1561.933,234.372l43.025,269.475l269.475,43.025l-269.475,43.025l-43.025,269.475l-43.025,-269.475l-269.475,-43.025l269.475,-43.025l43.025,-269.475Z" style="fill:#002d5d;"/>
    </g>
    <g>
        <path d="M1134.183,2578.176c0.285,1.693 1.04,2.727 2.264,3.101c1.56,9.255 4.111,7.227 11.034,13.812c6.779,2.34 14.827,3.596 24.142,3.767l4.376,0.133l9.465,4.499c5.962,-1.005 4.231,4.511 10.169,3.51c0.584,0.091 4.828,0.753 6.64,3.234c4.704,1.438 4.177,1.908 8.894,1.113l3.529,0.276c3.975,0.862 5.675,5.98 9.189,8.028c2.435,1.419 5.702,3.426 8.19,2.102c2.822,-0.476 4.328,-0.149 4.518,0.98c2.733,2.442 7.299,3.703 13.698,3.786l9.883,1.817c3.482,-0.006 5.314,-1.186 5.498,-3.539l2.511,-16.095c3.526,-4.955 2.654,-4.794 5.07,-6.078c1.129,-0.19 1.598,-0.85 1.408,-1.979c0.184,-2.353 -0.526,-4.845 -2.131,-7.477c-5.105,-5.971 -4.058,-5.647 -7.505,-13.536l-6.649,-8.456c-2.036,-1.051 -21.937,-6.182 -22.744,-10.968l-0.713,-4.233c-0.666,-3.951 -2.835,-6.487 -6.506,-7.61c-1.827,-0.285 -8.431,-1.315 -21.469,-8.571l-1.275,-2.397c-1.07,-1.466 -10.188,-13.955 -14.287,-17.617c-4.18,-4.713 -19.295,-5.894 -21.041,-6.031l-6.212,-0.694c-3.767,-1.687 -6.83,-4.363 -9.189,-8.028c-1.912,-1.361 -3.309,-3.347 -5.16,-4.789c-1.837,-1.432 -3.637,-3.119 -5.864,-3.8c-9.486,-11.095 4.103,-2.699 18.349,0.39l-3.814,-1.969c-2.359,-3.665 -5.517,-6.906 -9.474,-9.722c-0.735,-0.781 -6.788,-7.214 -10.178,-8.732c-14.071,-10.012 -14.197,-9.286 -31.353,-10.388l-10.597,-6.05c-2.455,-2.871 -4.042,-6.398 -6.368,-9.374c-2.494,-3.191 -4.762,-6.741 -8.062,-9.089l-3.111,-2.958c-1.24,-2.838 -7.868,-9.142 -8.628,-9.864l-22.068,-27.624c-6.976,-6.95 -13.057,-13.761 -18.245,-20.433l-13.441,-17.76l-13.717,-14.231c-5.77,-6.132 -26.677,3.845 -28.784,4.851l2.958,-3.111l8.181,-3.12c0.299,-1.919 38.486,-25.468 38.468,-35.214l0.276,-3.529l1.541,-6.354l0.276,-3.529l4.081,-6.782c3.564,-6.405 8.399,-12.154 14.506,-17.246c3.622,-8.087 4.19,-7.139 6.887,-15.962c0.279,-1.788 0.276,-3.529 -0.009,-5.222c1.595,0.125 3.009,1.156 4.59,1.403c1.14,0.178 2.439,0.394 3.458,-0.147c-1.802,-10.692 -4.208,-10.84 1.941,-19.481c0,0 0.469,-0.66 1.408,-1.979c3.202,1.782 5.742,1.354 7.619,-1.284l10.131,-17.379c1.52,-2.944 2.493,-20.729 7.153,-24.713l6.069,-0.152c-0.38,-2.258 -0.384,-3.998 -0.009,-5.222l1.113,-8.894c12.671,-17.807 8.316,-43.647 7.677,-47.438l-0.571,-3.386c-0.405,-0.555 -3.773,-5.168 -6.221,-5.917l-2.549,-4.794l-6.097,-15.515c-0.305,-1.807 -3.103,-6.678 -3.824,-7.191c-0.285,-1.693 -1.557,-2.35 -3.814,-1.969c-5.622,-0.439 -5.875,0.418 -9.465,-4.499l-2.121,-2.254l-11.025,-8.59c-1.823,-4.78 -11.052,-2.648 -17.798,-7.448c-2.519,-4.737 -0.669,-6.318 -6.364,-6.763c-0.436,-0.597 -0.79,0.562 -9.037,-1.96c-2.258,0.38 -3.482,0.006 -3.672,-1.122c-3.399,-6.392 -13.475,-4.694 -14.687,-4.49l-14.963,-0.961c-4.61,0.197 -10.257,-0.593 -16.941,-2.369c-10.445,0.019 -21.032,-0.809 -31.762,-2.483c-4.139,0.698 -3.625,0.096 -8.047,-1.256c-21.509,-0.655 -30.268,0.109 -34.587,-3.748c0.006,3.482 -1.684,5.508 -5.07,6.078c-4.61,0.197 -8.609,0.58 -11.995,1.151c-3.386,0.571 -15.521,2.616 -17.779,2.996c-2.258,0.38 -4.845,0.526 -7.762,0.438l-10.73,-1.674c-6.966,1.174 -17.553,7.154 -19.614,2.435l-4.385,-5.355c0,0 -12.482,9.626 -11.558,8.913l-1.969,3.814c-15.631,14.707 -42.383,14.756 -46.268,14.763c-3.951,0.666 -6.395,1.658 -7.334,2.977l-4.09,1.56l-13.821,5.812l-3.386,0.571c-1.129,0.19 -1.88,0.897 -2.254,2.121c1.106,6.56 1.515,6.485 7.496,8.314c7.704,5.482 8.539,4.434 10.178,8.732c1.224,0.374 2.356,1.925 3.396,4.652c10.387,7.391 14.221,11.875 15.267,13.099l13.146,10.844l6.792,9.303l7.134,42.33c3.966,23.533 3.337,23.623 5.555,27.795l0.999,5.926c3.386,-0.571 5.695,1.072 6.925,4.927c5.746,34.091 6.363,33.813 6.002,40.779c-0.279,1.788 0.9,3.621 3.539,5.498c1.788,0.279 2.679,-1.322 2.673,-4.804l-0.999,-5.926c-0.38,-2.258 -0.9,-3.621 -1.56,-4.09c-2.943,-4.031 -2.38,-7.641 -2.273,-8.323c0.939,-1.319 1.972,-2.074 3.101,-2.264l1.417,3.244l4.851,28.784c0.222,1.315 1.569,9.313 -0.675,16.656l-1.113,8.894l0.143,0.847l2.397,-1.275l1.56,4.09c0.38,2.258 4.138,24.551 4.138,24.551l-0.133,4.376l-0.847,0.143c-0.476,-2.822 -1.42,-4.984 -2.835,-6.487l0.428,2.54c-1.692,2.378 1.034,6.139 -0.266,8.751c-0.776,1.558 -3.316,2.338 -4.937,1.703c-0.285,-1.693 -1.278,-4.138 -2.977,-7.334l-3.12,-8.181c-4.814,6.765 -3.324,28.183 1.893,31.895l0.143,0.847c0.321,0.734 0.935,-0.022 6.506,7.61c4.896,1.497 6.877,4.645 5.945,9.446c-1.693,0.285 -4.87,4.75 -5.213,5.232c0.476,2.822 1.608,4.373 3.396,4.652c-0.19,-1.129 -0.051,-2.023 0.419,-2.682c-0.19,-1.129 1.031,-2.495 3.662,-4.1l2.407,3.948c-0.089,2.917 -0.507,5.6 -1.256,8.047c-1.763,11.3 -1.879,10.782 -1.532,11.576c0.761,4.515 0.203,8.092 -1.674,10.73c-2.067,1.509 -3.526,1.465 -4.376,-0.133c-0.755,-1.034 -1.275,-2.397 -1.56,-4.09c-0.748,2.448 -2.02,1.791 -3.814,-1.969c-1.319,-0.939 -2.216,-2.819 -2.692,-5.641c-0.755,-1.034 -1.37,-2.962 -1.845,-5.784c-0.326,0.543 -4.081,6.782 -4.081,6.782l4.68,12.271c1.693,-0.285 2.445,-0.992 2.254,-2.121c1.972,-2.074 3.244,-1.417 3.814,1.969c1.196,0.851 20.775,14.782 6.383,17.208c-0.469,0.66 -0.986,1.037 -1.551,1.132c-2.067,1.509 -2.064,3.25 0.009,5.222l4.823,13.118c3.57,-2.923 5.879,-1.281 6.925,4.927l0.571,3.386c0.474,0.649 4.528,6.202 4.956,8.742c6.547,4.658 6.752,45.834 11.262,61.659c0.269,1.594 1.498,8.889 -0.951,20.185c0.428,2.54 -2.372,0.548 -2.54,0.428l-3.681,-6.345c-0.285,-1.693 -0.758,-2.774 -1.417,-3.244c0.095,0.564 -0.14,0.894 -0.704,0.989l0.713,4.233c-0.927,1.303 -2.391,7.985 -2.102,8.19c0.666,3.951 0.529,6.586 -0.409,7.905c-0.374,1.224 -0.371,2.965 0.009,5.222c0.66,0.469 1.227,2.115 1.703,4.937c2.412,1.717 2.289,8.321 1.427,8.466c-0.469,0.66 -0.371,2.965 0.295,6.915l2.026,27.519c-0.469,0.66 -1.268,1.084 -2.397,1.275c-0.362,-0.496 -4.528,-6.202 -4.528,-6.202c-0.19,-1.129 -0.945,-2.162 -2.264,-3.101c-1.598,0.85 -2.537,2.169 -2.816,3.957c0,0 1.855,11.006 2.711,16.085c0.856,5.08 1.947,9.829 3.272,14.249c0.233,1.381 0.462,1.212 6.24,16.361l0.989,0.704c1.224,0.374 1.883,0.843 1.979,1.408l20.936,26.073c0.472,0.774 15.326,13.886 21.346,18.169l0.989,0.704c0.702,-0.512 -5.314,-0.908 1.674,-10.73c0.653,-3.012 1.214,-4.848 1.684,-5.508c-3.978,-23.605 37.243,9.177 33.284,-14.316c6.11,-8.587 7.415,-7.665 6.754,-11.586c-1.04,-2.727 -2.172,-4.277 -3.396,-4.652c-1.89,-4.325 -1.991,-8.371 -0.304,-12.138c-0.154,-0.916 5.067,-0.928 5.508,1.684l6.925,4.927c0.095,0.564 1.132,1.551 3.111,2.958c0.726,-6.493 0.925,-8.149 6.763,-6.364l-0.428,-2.54c-3.55,-9.309 1.643,-15.123 2.511,-16.095c1.129,-0.19 1.503,-1.414 1.122,-3.672c-0.501,-1.57 -4.662,-14.611 -3.424,-20.318c-0.072,-0.428 -0.713,-4.233 -2.549,-4.794l-9.617,-10.568c-0.38,-2.258 -1.043,-4.468 -1.988,-6.63l-4.994,-29.631c0.828,-10.587 -2.972,-33.133 -3.453,-35.985c0.082,-6.399 -1.011,-12.889 -3.282,-19.472c-2.644,-5.359 -4.065,-10.343 -4.261,-14.953c-0.666,-3.951 0.837,-5.365 4.509,-4.242c0.98,-4.518 -1.194,-17.414 -1.446,-18.911c-0.009,-5.222 -2.829,-21.95 -3.148,-23.847c1.402,-5.46 3.846,-6.453 7.334,-2.977c4.673,1.429 32.754,27.212 35.481,29.717l7.496,8.314l27.139,21.546l16.96,12.813l19.224,15.914l11.31,10.283c0.945,2.162 2.594,3.336 4.946,3.52c9.607,5.346 31.647,21.028 34.339,22.944l6.078,5.07c1.604,2.632 3.253,3.805 4.946,3.52c1.373,-0.034 10.924,-0.274 15.258,7.876c5.936,4.224 10.689,4.874 14.259,1.95Zm-219.857,-286.826l1.037,26.815c-1.256,4.107 2.379,8.527 1.717,12.77c-0.783,5.02 -2.957,9.914 -5.902,14.054c0.19,1.129 -0.561,1.836 -2.254,2.121l-2.825,-1.265c-0.564,0.095 -1.037,-0.986 -1.417,-3.244c-7.698,-17.617 -4.397,-20.922 -4.842,-23.562l-3.995,-23.705c-2.397,-14.221 -0.783,-14.031 0.371,-28.794l0.694,-6.212l0.4,-13.127c3.123,-4.389 1.198,-4.632 1.95,-14.259l-0.571,-3.386c1.224,0.374 2.495,1.031 3.814,1.969c2.727,-1.04 3.805,-3.253 3.234,-6.64c-1.7,-3.196 -1.614,-7.854 0.257,-13.974l0.114,-14.82c1.585,-7.813 3.361,-14.497 5.327,-20.052c0,0 0.737,4.374 0.785,4.656c0.048,0.282 0.401,0.658 1.061,1.127c0,0 0.469,-0.66 1.408,-1.979l-0.143,-0.847c0.893,-17.247 0.112,-28.833 -0.057,-31.334c1.372,-6.326 1.626,-14.67 1.665,-15.952c3.252,-20.841 62.304,-16.225 67.861,-15.79c1.693,-0.285 2.682,0.419 2.968,2.112c6.262,4.456 16.625,1.926 21.75,7.653c2.984,3.334 9.447,45.947 7.158,55.386c-2.112,2.968 -5.486,10.503 -5.907,11.443l0.999,5.926c1.41,1.499 6.738,16.812 11.044,19.034c2.923,3.57 2.036,6.912 -2.663,10.026l-0.561,1.836c0.38,2.258 2.568,15.239 2.568,15.239c-1.819,0.967 -1.182,1.241 -3.092,7.486c-0.289,3.696 -0.629,3.372 -2.663,10.026c-0.241,3.088 -8.949,12.836 -9.855,13.85c-0.939,1.319 -0.606,3.294 0.999,5.926c0.19,1.129 0.098,2.305 -0.276,3.529c-5.289,7.434 -4.639,7.665 -7.886,10.035c-1.113,0.487 0.635,1.574 -9.294,12.014l-3.948,2.407c-2.162,0.945 -4.23,2.454 -6.202,4.528c-4.088,2.984 -3.268,4.711 -8.038,3.967c-0.752,0.936 0.825,6.826 -6.478,8.057c-2.638,-1.877 -4.522,-2.721 -5.65,-2.53c-5.815,8.173 -4.226,10.289 -13.669,11.881c-3.012,-0.653 -5.032,1.138 -6.059,5.374c-2.638,-1.877 -4.522,-2.721 -5.65,-2.53l-4.804,-2.673c-6.399,-0.082 -10.121,-3.228 -11.167,-9.436l0.4,-13.127l-1.864,-16.228l-0.999,-5.926c0,0 -0.282,0.048 -0.847,0.143Zm14.429,250.926c-9.022,-12.358 -15.188,-81.566 -15.828,-88.75c-0.968,-10.869 7.492,-9.845 7.886,-10.035c5.96,49.224 6.11,49.016 10.482,98.357l-2.54,0.428Zm145.616,-334.491c0.014,0.546 0.109,4.345 -0.929,6.76c-0.7,1.628 -1.502,3.214 -2.382,4.752c-0.199,0.347 -5.161,0.054 -5.037,-3.644c0.06,-1.789 1.461,-5.121 2.508,-6.304c1.203,-1.359 1.502,-0.833 5.84,-1.564Zm-147.071,232.87c0.161,0.958 0.266,1.577 0.304,12.138c-1.48,-4.519 -2.126,-4.415 -1.875,-7.74c0.028,-0.372 0.238,-3.144 1.57,-4.398Zm-42.719,-129.491c-3.372,-5.239 -1.565,-7.939 -1.427,-8.466c0.832,0.869 3.516,1.633 1.427,8.466Zm-74.139,-21.46l1.693,-0.285c-0.955,-5.664 -1.248,-11.42 -1.813,-17.136c-0.465,-4.703 -0.674,-9.434 -1.278,-14.122c-0.207,-1.604 -0.775,-1.175 -2.331,-0.913l-0.143,-0.847c-1.813,-4.149 -2.548,-3.589 -6.925,-4.927c0.211,4.953 2.513,24.885 4.423,26.245c0.755,1.034 2.641,3.618 3.396,4.652c1.7,3.196 2.692,5.641 2.977,7.334Zm15.153,27.919c-0.291,0.049 -0.6,0.017 -0.882,-0.069c-0.342,-0.105 -0.799,-0.815 -0.954,-0.492c-0.667,1.389 -0.653,3.011 -0.98,4.517c-0.327,1.506 -0.568,3.034 -0.98,4.519c-0.078,0.281 -0.42,0.447 -0.475,0.733c-0.068,0.352 -0.039,0.749 0.125,1.067c0.575,1.109 1.478,2.027 2.052,3.137c0.35,-0.492 0.928,-0.791 1.278,-1.283c0.123,-0.173 1.201,-17.881 0.814,-12.13Zm87.58,-38.268c1.721,-1.471 1.594,-3.91 1.575,-4.274c-0.077,-1.478 -3.066,-5.519 -3.287,-5.885l1.712,10.159Z" style="fill:#b2e8f5;fill-rule:nonzero;"/>
        <path d="M1498.439,2213.802c-4.203,-6.151 -8.653,-7.512 -13.352,-4.082c-2.169,0.366 -1.208,2.646 -26.418,7.618c-32.093,6.33 -31.704,6.344 -32.195,6.217c-1.712,-0.767 -3.765,-0.421 -6.157,1.038c-39.679,6.687 -91.013,28.162 -125.174,32.177l-12.314,2.075l0.061,-37.21c1.453,-0.773 3.462,-1.375 6.027,-1.807c-1.687,-2.061 -1.192,-2.379 -8.941,-48.357c-1.774,-41.61 -2.451,-41.62 -0.847,-42.598c5.039,-5.641 5.771,-19.781 5.863,-21.567c-4.024,-1.96 -7.665,-4.776 -10.922,-8.449c7.002,-11.637 11.685,-11.187 19.12,0.735c0.831,-0.874 8.135,-8.554 3.053,-14.761c11.297,-0.637 7.053,-4.918 6.771,-16.18c6.984,34.591 12.697,32.637 14.683,30.768c5.782,-8.126 7.042,-5.143 15.894,-9.011c0.438,-1.118 4.507,-11.501 4.722,-14.251l8.604,4.09c-0.68,2.225 -1.534,3.424 -2.56,3.597c2.225,0.68 4.237,1.66 6.036,2.94c0.935,-2.386 4.414,-2.636 6.408,-4.246c1.741,-1.406 4.743,-2.518 4.739,-4.756c-1.799,-1.28 -3.554,-2.303 -5.266,-3.07l17.425,-14.018l7.056,-0.398c5.725,-3.603 12.395,-4.727 20.01,-3.372c4.024,1.96 6.63,0.202 7.817,-5.275c-5.304,-0.161 -8.045,-2.338 -8.224,-6.529l2.56,-3.597c1.432,-0.241 -0.059,-1.895 14.865,-10.42c14.12,-8.066 14.414,-1.433 30.673,3.537c1.28,-1.799 2.303,-3.554 3.07,-5.266l-13.482,-4.851c0.254,-1.626 1.107,-2.825 2.56,-3.597c6.202,-4.528 1.799,-10.559 1.263,-11.294l-6.166,-3.71c-3.27,4.596 -6.278,-1.648 -9.746,3.225c-2.215,7.246 -1.584,-2.482 -7.454,-6.659c-0.346,-2.052 -1.118,-3.505 -2.318,-4.358l-14,-7.93c-13.92,-4.255 -8.602,14.707 -23.331,11.847c-0.865,-0.615 -0.969,0.163 -13.084,2.205c-7.928,-2.424 -11.041,-0.151 -11.804,0.406c-2.452,1.072 -20.555,-0.622 -22.579,2.222c-0.254,1.626 -1.15,2.568 -2.689,2.828c-29.499,11.251 -29.463,12.527 -33.726,11.224c-6.399,8.993 -12,10.201 -16.802,3.623c-4.702,1.284 -46.913,12.814 -59.642,12.426c-2.958,-0.574 -34.386,-6.678 -37.591,2.378l-10.23,19.137l5.534,9.357c2.695,3.692 0.918,3.469 -1.911,7.446c1.365,2.24 12.702,20.836 6.217,32.195c0,0 3.589,21.293 4.28,25.398c6.935,3.58 11.998,33.617 12.513,36.674c2.262,36.385 2.914,35.587 0.129,71.213c1.426,8.46 -5.074,13.077 0.7,32.333l2.335,13.853l0.666,13.343l1.297,7.696c-0.273,1.487 -0.106,1.481 3.148,37.461c-0.348,4.457 0.417,8.94 0.281,13.408c-0.147,4.825 0.072,9.762 -1.129,14.437c-0.64,0.899 3.407,24.911 3.77,27.067c0.586,10.4 -0.332,10.209 4.142,19.881c0,0 1.665,9.877 2.4,14.238c0.764,4.531 1.858,72.12 -2.608,83.151l-0.64,0.899l5.681,19.621c1.631,3.419 2.32,5.941 2.067,7.567c-0.51,1.669 -4.305,4.439 -4.739,4.756c0.346,2.052 0.862,3.548 1.548,4.488l0.908,5.387c0.357,2.116 1.914,3.857 2.577,5.898c1.535,4.727 4.496,9.418 4.004,14.364l0.017,9.495c-1.02,3.338 0.369,11.581 0.536,12.574c-0.865,-5.131 0.839,-9.112 5.111,-11.942l14.9,8.57c-3.728,8.325 -9.076,0.381 -14.485,7.982c3.325,5.455 3.436,4.148 9.893,7.039c1.366,-1.286 3.329,-3.727 5.889,-7.324c10.896,-5.794 12.406,3.165 12.582,4.211c-0.795,5.098 0.978,5.514 -4.09,8.604l11.423,2.032c0.94,-1.69 1.679,-4.893 3.584,-4.562c4.079,0.71 6.195,7.662 10.278,6.974c6.378,0.713 25.574,-7.384 28.208,-11.086c1.592,-0.003 1.063,-1.045 18.592,-7.091l0.77,-0.13l8.717,-4.635c1.243,-1.044 36.149,-10.072 38.464,-15.981l9.616,-3.995c9.35,-6.309 41.661,-18.027 45.261,-17.918l1.28,-1.799c12.264,-10.227 33.798,-19.173 36.917,-20.469c7.368,-6.933 7.341,-6.468 7.428,-7.584c1.28,-1.799 2.433,-2.785 3.459,-2.957c4.701,0.143 7.512,-9.05 7.809,-10.022c-3.424,-1.534 -6.416,-0.502 -8.976,3.096c-0.346,-2.052 -1.548,-4.488 -3.606,-7.307l-2.292,9.884l-8.215,-1.781c1.701,-5.563 1.735,-10.054 0.104,-13.473c-0.346,-2.052 0.507,-3.251 2.56,-3.597l11.026,-5.024l-0.752,9.625c1.408,0.043 0.983,-0.866 16.283,-6.702c3.592,-0.605 4.402,-2.061 2.43,-4.367c-2.318,-4.358 -4.648,-1.083 -4.877,-0.761l-5.509,4.886c-3.678,0.092 -5.35,-2 -5.016,-6.278c1.093,-1.029 10.02,-9.428 16.794,-8.371l4.618,-0.778l-2.196,-8.336c6.557,2.936 5.952,4.537 15.531,2.923c4.785,5.843 5.264,7.65 10.784,2.932l-2.698,-1.92c-8.19,-3.667 -6.6,-8.386 2.292,-9.884c1.113,0.34 2.695,0.337 4.748,-0.009l-1.816,-10.775l-7.705,-3.45c-1.081,1.362 -11.143,14.035 -18.713,11.069l4.479,-6.295c-7.575,-5.39 -7.278,-5.882 -9.763,-6.27c-0.872,-0.39 -0,-0 -11.934,-0.363l0.752,-9.625c-6.767,-0.529 -5.236,1.48 -5.889,7.324l-5.889,7.324c-5.1,-4.556 -14.544,0.466 -15.652,1.055c-6.628,4.473 -39.288,26.51 -91.284,40.712c-4.643,1.844 -30.441,12.09 -61.441,11.146l-3.468,-1.79l-5.318,-31.555l-2.214,-17.831c0.789,-7.923 -0.777,-31.168 -0.96,-33.873l-0.7,-32.333l-1.029,-1.41l-0.078,-42.728c-0.086,-0.513 0.21,-1.882 0.891,-4.108c0.167,-2.139 -0.138,-5.517 -0.917,-10.135c-5.069,-16.904 13.932,-18.357 15.877,-18.506l8.466,-1.427c2.047,-3.511 3.367,-6.636 3.961,-9.374c1.723,0.889 11.641,6.009 24.127,2.266l23.08,-8.639c1.732,-0.757 15.236,-6.657 22.57,-6.97c0,0 1.283,-0.216 3.848,-0.649c0.827,-0.44 7.543,-4.011 11.545,-1.946c1.199,0.853 2.439,0.381 3.718,-1.418c1.55,-0.677 2.777,-1.954 4.294,-2.702c0.94,-0.464 2.011,-1.21 3.014,-0.904c4.616,-0.778 20.587,-12.734 24.62,-8.898c-3.606,-5.915 -2.003,-5.949 -1.435,-13.213c6.157,-1.038 10.651,0.579 13.482,4.851c1.118,3.505 3.816,5.425 8.094,5.759c2.133,-2.998 3.883,-5.14 5.249,-6.425l9.253,7.939l5.379,-5.655c2.398,1.706 6.379,3.41 11.942,5.111c2.646,-3.084 6.151,-4.203 10.515,-3.355l8.466,-1.427l-3.606,-7.307c2.819,-2.058 9.749,1.045 10.524,1.392c2.819,-2.058 4.869,-3.987 6.148,-5.785c-0.317,-0.434 -3.087,-4.229 -4.756,-4.739l5.759,-8.094c-0.319,-0.835 -1.661,3.559 -10.784,-2.932c7.018,-7.044 2.947,-8.901 8.95,-17.338l2.309,-0.389c0.773,1.453 1.375,3.462 1.807,6.027c1.291,-0.493 13.015,-4.964 15.254,-8.111l-19.518,-7.792l12.556,-10.031c-2.617,-1.351 -15.738,-8.124 -36.692,3.018Zm12.867,19.993c-0,0 -3.952,14.121 -3.952,14.121l-2.309,0.389c-0.432,-2.565 -1.548,-4.488 -3.347,-5.768c-0.368,-0.504 -2.058,-2.819 -5.655,-5.379c3.222,-0.543 9.148,-4.27 9.871,-4.39c2.732,-0.454 5.009,0.813 5.392,1.027Zm-247.512,353.563c0.329,-0.31 3.035,-2.855 4.276,-3.689c1.009,-0.678 4.429,-0.79 4.19,2.262c0.206,1.225 -2,1.867 -2.226,1.933c-1.122,0.327 -4.792,-0.281 -6.24,-0.507Zm89.254,-522.39l8.077,-3.736c-0.071,0.455 -0.768,4.925 -1.851,5.457c-1.137,0.558 -5.755,-1.51 -6.226,-1.721Zm19.103,-8.76c-0.407,-2.416 -1.419,-3.712 -1.418,-3.718c0.036,-0.366 0.277,-0.838 0.64,-0.899c0.259,-0.044 0.121,0.513 0.226,0.753c0.111,0.255 0.234,0.513 0.418,0.721c0.432,0.487 0.982,0.858 1.414,1.345l-1.28,1.799Zm79.374,466.269c-0.427,0.6 -0.597,1.156 -0.51,1.669l-0.519,-3.079c0.031,0.186 0.103,0.608 0.338,0.685c0.264,0.087 0.334,-0.06 0.498,0.163c0.11,0.15 0.164,0.388 0.193,0.561Zm-1.217,-458.07c-2.027,-4.638 -3.508,-2.546 -8.475,-3.321c0.692,4.105 -0.758,6.46 -4.35,7.065c-2.288,-0.179 -2.511,-0.171 -3.654,1.803c-0.886,1.531 -1.339,3.31 -2.365,4.752l10.775,-1.816c0.427,0.803 2.318,4.358 4.894,10.256c1.706,-2.398 3.499,-4.283 5.379,-5.655c0.183,7.28 3.054,5.678 10.022,7.809l11.553,2.802c0.299,0.091 0.283,-0.048 3.848,-0.649c-1.126,-6.682 -0.823,-7.705 -7.203,-9.867c-5.141,-1.742 -6.552,-1.303 -7.843,-8.968c2.479,-0.945 4.785,-2.917 6.918,-5.915c-11.876,0.022 -12.233,-1.765 -19.5,1.703Zm47.153,458.243c0.6,0.427 2.998,2.133 3.597,2.56c4.537,1.874 7.999,0.499 10.386,-4.125c1.082,-4.989 1.939,-5.301 7.048,-5.145c-3.464,-5.97 -8.373,-3.353 -8.475,-3.321c-0.77,0.245 -8.645,2.746 -9.525,3.361c-2.655,1.857 -2.986,6.085 -3.031,6.67Zm-34.251,-489.703c3.583,4.191 8.461,4.696 9.981,6.469c2.216,2.585 0.636,7.753 0.439,8.396c3.251,0.507 5.99,1.101 8.215,1.781c-3.339,-8.754 -2.638,-9.566 -4.894,-10.256c-2.988,-1.338 -2.608,-1.825 -6.555,-6.019c-2.145,-3.332 -4.54,-3.456 -7.186,-0.372Zm-112.159,62.435c0.978,-0.324 9.316,-3.083 11.795,-5.154c2.043,-1.706 2.155,-5.403 2.171,-5.906c-3.769,2.752 -7.605,6.967 -13.966,11.06Zm169.214,407.595c0.047,-0.475 0.441,-4.428 -2.127,-5.578c-1.541,-0.69 -3.059,-0.384 -3.321,-0.331c-1.634,0.33 -3.192,0.978 -4.825,1.308c2.375,1.063 4.897,1.775 7.272,2.839c1.059,0.474 2.056,1.089 3.002,1.762Zm-11.752,-41.552c0.186,-0.609 1.918,-6.273 0.792,-7.925c-1.078,-1.581 -3.896,-3.149 -4.276,-3.36c2.229,3.053 -0.139,6.62 -0.151,6.66c-0.784,2.645 3.207,4.432 3.636,4.625Zm-195.278,-346.215c-0.665,-1.522 -0.66,-2.266 -2.152,-1.547c-0.841,0.405 -3.477,3.197 -7.019,-0.592c-2.563,-2.741 -5.259,-9.529 -5.608,-10.408c1.128,0.802 4.621,-3.324 7.659,-2.106c3.722,1.493 5.863,9.269 7.12,14.653Zm152.682,-75.596c-2.06,2.895 -0.659,5.528 -0.631,5.647c0.884,-0.577 2.757,-0.866 2.993,-1.564c0.328,-0.97 0.766,-2.857 -2.362,-4.082Zm43.192,467.617c-4.011,-4.263 -6.115,-0.747 -6.416,-0.502l6.416,0.502Zm-214.674,-287.541c-0.133,0.022 0.049,0.552 0.045,0.561c-0.1,0.225 -0.487,0.305 -0.685,0.338l1.928,2.049c1.539,-0.259 3.079,-0.519 4.618,-0.778c-3.338,-1.02 -5.307,-1.744 -5.906,-2.171Zm40.082,-114.398c-0.899,-0.64 -1.799,-1.28 -2.698,-1.92c-0.853,1.199 -1.536,1.842 -2.049,1.928l2.698,1.92c0.033,-0.031 0.999,-1.751 2.049,-1.928Zm42.174,-22.146l-0.259,-1.539c-0.533,-0.115 -1.075,-0.232 -1.62,-0.222c-0.199,0.004 -0.598,0.484 -0.689,0.611c-0.363,0.061 -0.64,0.899 -0.64,0.899l3.208,0.251Zm135.393,366.597c-0.548,0.491 -1.192,1.068 -1.28,1.799c-0.032,0.268 1.496,0.781 1.735,0.896c0.586,0.282 1.147,0.613 1.733,0.894l0.64,-0.899c-0.459,-0.462 -0.956,-0.884 -1.415,-1.346c-0.188,-0.189 -0.329,-0.421 -0.522,-0.604c-0.28,-0.266 -0.576,-0.516 -0.891,-0.74Zm-55.948,-425.893c-0.19,0.032 -0.6,0.112 -0.758,-0.095c-0.126,-0.165 -0.087,-0.364 -0.318,-0.416c-0.212,-0.048 -0.382,-0.035 -0.593,0.001c-0.501,1.638 -0.345,3.143 -0.156,3.443c0.31,0.49 1.114,0.353 1.574,0.275c0.427,-0.6 0.51,-1.669 0.251,-3.208Zm-49.36,21.774c0.731,0.653 6.47,5.779 8.482,8.851c1.618,2.469 2.55,5.391 2.708,5.885c1.015,6.025 11.379,1.248 12.833,1.003c2.992,-1.032 3.716,-3.001 2.171,-5.906c-4.537,-1.874 -9.844,-3.618 -15.92,-5.232c0.283,-0.548 2.894,-5.606 2.803,-7.176c-0.088,-1.536 -1.24,-3.113 -1.411,-3.348c1.372,1.879 2.955,1.877 4.748,-0.009c0.422,-0.593 2.56,-3.597 6.918,-5.915c-6.009,0.256 -10.097,0.794 -11.666,5.924l0.13,0.77c-1.286,-1.366 -2.142,-1.75 -2.568,-1.15c0,0 -9.227,6.304 -9.227,6.304Z" style="fill:#b2e8f5;fill-rule:nonzero;"/>
        <path d="M1576.672,2476.057l3.079,-0.519c0.004,2.034 0.039,21.661 -3.675,25.156l-4.73,9.504l0.389,2.309c1.459,2.393 1.335,4.788 -0.372,7.186l-2.681,7.575c-2.318,-4.358 -6.151,-7.086 -6.814,-7.558l-2.81,6.806l0.389,2.309c0.605,3.592 1.853,7.866 3.744,12.824c4.236,-0.286 2.608,1.384 4.125,10.386c4.5,-1.716 5.224,-1.878 6.036,2.94c-0.507,3.251 0.565,4.918 3.217,4.998l-0.536,-12.574l1.92,-2.698l2.568,1.15l1.548,4.488c4.689,6.423 3.478,6.212 9.002,11.147c0.254,-1.626 1.02,-3.338 2.3,-5.137l4.765,9.486l0.112,-8.725l1.41,-1.029c3.313,6.231 3.973,5.437 11.302,6.01c-0.264,1.69 0.207,3.427 0.073,5.132c-0.119,1.518 0.057,3.252 -0.826,4.492l7.316,1.142l36.303,-5.327c4.445,-1.804 7.44,-1.254 8.985,1.652c1.539,-0.259 2.908,0.037 4.108,0.891c1.626,0.254 3.338,1.02 5.137,2.3c2.733,-2.571 4.482,-4.713 5.249,-6.425l-1.418,-3.718c1.28,-1.799 1.92,-2.698 1.92,-2.698c2.527,-1.344 5.725,-0.605 8.466,-1.427c1.342,-0.402 2.776,-1.046 3.589,-2.188l2.43,-4.367c3.487,-1.854 16.461,2.112 17.84,2.534c1.199,0.853 2.312,1.193 3.338,1.02c20.686,-0.038 20.254,-3.876 21.679,-2.862c5.39,0.675 9.579,-1.087 12.565,-5.284l2.3,-5.137c1.372,1.879 2.401,3.289 3.087,4.229l1.539,-0.259c2.306,-1.972 4.012,-4.37 5.119,-7.195c-0.173,-1.026 0.254,-1.626 1.28,-1.799c7.088,-6.061 16.16,-9.408 23.582,-15.055c2.05,-1.559 3.54,-3.897 4.479,-6.295c5.011,-4.715 4.283,-6.076 11.026,-5.024l-1.038,-6.157l10.507,-8.103l0.77,-0.13c0.384,-3.439 0.956,-2.717 12.418,-15.548c10.705,-7.815 15.499,-14.772 20.625,-18.514c2.56,-3.597 5.506,-6.468 8.838,-8.613c0.254,-1.626 1.107,-2.825 2.56,-3.597l5.379,-5.655c7.141,-6.719 17.99,-27.564 19.059,-32.497c2.733,-2.571 4.866,-5.569 6.399,-8.993l1.401,-5.777l6.14,-10.533c8.286,-18.503 6.208,-26.276 7.005,-28.883c-2.652,-0.081 -4.324,-2.173 -5.016,-6.278c0.427,-0.6 0.51,-1.669 0.251,-3.208l3.563,-16.43l-0.519,-3.079c-4.165,-13.889 -3.33,-21.356 -3.122,-23.219c0.68,-2.225 0.378,-4.021 -0.908,-5.387c-9.009,-14.777 -25.376,-23.885 -28.018,-25.355l-11.951,-9.858c-0,-0 -18.903,-8.465 -20.547,-9.201c-3.444,-2.451 -46.192,-10.377 -61.865,-10.153l-10.144,-3.831c-1.199,-0.853 0.351,-5.924 0.502,-6.416l-0.389,-2.309c-0.346,-2.05 1.257,-1.432 13.689,-22.094c3.236,-3.772 5.308,-8.411 8.189,-12.461c0.966,-1.357 2.116,-2.586 3.329,-3.727c2.555,-10.534 26.721,-51.991 29.281,-56.382l4.601,-10.273c0.956,-1.344 5.119,-7.195 7.022,-19.388c0.68,-2.225 2.721,-8.901 3.061,-10.014c0.081,-2.652 0.718,-5.134 1.911,-7.446c8.69,-40.073 11.506,-39.742 8.881,-55.318l-1.557,-9.236c0.101,-13.098 -16.464,-32.696 -25.597,-34.469l-10.152,-8.578c-1.894,-0.978 -18.639,-9.622 -24.654,-10.092c-24.049,-10.769 -53.899,-10.021 -58.656,-9.902c-9.012,-2.755 -16.399,-2.57 -17.84,-2.534l-29.255,0.181c-7.253,-0.221 -63.646,-1.937 -90.186,9.659l-0.13,-0.77c-1.937,-0.1 -16.486,-0.853 -24.118,2.482l-15.393,2.594l-9.374,-3.961c-2.738,-0.594 -4.748,0.009 -6.027,1.807c-0.081,2.652 -1.49,3.681 -4.229,3.087c-2.052,0.346 -3.292,0.819 -3.718,1.418c-3.894,3.664 -5.304,2.27 -5.759,8.094c0.173,1.026 -0.167,2.139 -1.02,3.338c-12.7,4.844 -25.554,6.555 -28.598,8.777c-1.453,0.773 -2.006,2.185 -1.66,4.237c4.797,3.413 7.84,7.385 9.132,11.916l0.899,0.64c1.355,0.964 12.441,8.852 14.398,14.986l3.727,3.329c2.787,0.435 10.013,19.381 10.688,21.152l11.579,17.044c0.259,1.539 1.159,2.179 2.698,1.92c4.451,1.361 6.638,4.949 6.563,10.766l-0.381,2.439l2.724,16.162l-0.493,11.164c3.845,-2.231 6.37,-1.337 7.575,2.681c1.799,1.28 2.058,2.819 0.778,4.618c-0.121,3.978 5.674,38.365 6.235,41.69c-0.68,2.225 -0.934,3.851 -0.761,4.877c0.059,32.554 2.407,40.385 3.416,43.748c0.483,2.868 -0.374,5.829 -0.112,8.725c0.351,3.887 1.297,7.696 1.946,11.545c0.983,39.19 1.611,39.068 1.617,42.468c-0.256,0.36 -3.2,4.497 -3.2,4.497c-4.191,0.179 -7.097,1.724 -8.717,4.635l-3.329,3.727l-0.519,-3.079l-1.833,-20.27l1.245,-20.789l0.493,-11.164c-0.197,-1.168 -1.751,-10.39 2.283,-14.632c-0.112,-0.663 -1.038,-6.157 1.781,-8.215c0.823,-0.139 0.84,-2.516 0.381,-2.439c-1.286,-1.366 -1.502,-2.649 -0.649,-3.848c2.295,-10.583 3.101,-9.78 2.153,-15.401l1.124,-16.811l-2.318,-4.358l-1.539,0.259l-1.92,2.698l-0.77,0.13c-1.06,-1.452 -2.935,-11.035 -2.343,-18.601c-0.173,-1.026 0.21,-1.882 1.15,-2.568l-0.268,-6.287l-1.055,-15.652l-1.427,-8.466l-0.77,0.13c-0.507,3.251 -1.188,5.477 -2.041,6.676c-0.059,0.752 -0.502,6.416 -2.421,9.115c-0.893,11.421 -1.667,11.645 -0.104,13.473c0,0 0.13,0.77 0.389,2.309c-0.68,2.225 -0.847,4.364 -0.502,6.416c-0.68,2.225 -0.588,5.903 0.277,11.034l1.193,21.169c0.161,2.388 1.486,22.055 1.081,29.895l-0.856,23.098l0.787,9.365c1.416,33.21 -9.655,31.942 -7.359,45.564c1.291,4.531 0.827,8.039 -1.392,10.524c-0.387,1.266 1.02,10.856 2.205,13.084c3.171,3.159 5.016,6.278 5.534,9.357l0.406,11.804c1.051,6.236 4.659,70.101 10.282,79.791l-0.043,-23.738l-1.825,-15.522c-0.519,-3.079 0.504,-4.834 3.07,-5.266c1.067,-0.002 11.221,-0.02 13.092,2.542c3.063,0.478 1.812,1.36 4.912,19.751l0.925,14.882c0.432,2.565 2.188,3.589 5.266,3.07l-0.649,-3.848l1.142,-7.316c0,0 0.34,-1.113 1.02,-3.338c2.705,1.925 4.588,22.11 1.332,26.686c-1.199,-0.853 -3.468,-1.79 -6.806,-2.81c3.046,8.833 -9.248,20.409 -7.653,25.035c2.986,-4.197 4.863,-7.152 5.63,-8.864l0.899,0.64l0.908,5.387c-0.293,3.743 4.453,10.243 5.024,11.026c0.096,0.568 0.908,5.387 -0.372,7.186c-2.254,2.121 -2.862,9.892 -2.932,10.784l-6.036,-2.94l-1.41,1.029l0.908,5.387c1.026,-0.173 2.009,-0.602 2.949,-1.288c2.052,-0.346 3.505,-1.118 4.358,-2.318l-0.77,0.13Zm115.09,-2.775c1.804,4.445 1.597,7.91 -0.623,10.394l-5.777,-1.401c-9.561,-0.291 -6.151,-5.581 -5.785,-6.148c0.303,-0.469 1.664,1.469 5.638,-4.116c1.529,-5.001 0.787,-5.673 2.94,-6.036c-0.211,-0.553 -2.127,-5.578 -3.476,-6.538c-0.466,0.655 -3.803,1.662 -2.949,1.288c-2.738,-0.594 -4.624,-2.387 -5.655,-5.379l0.251,-3.208c-0.432,-2.565 -1.418,-3.718 -2.957,-3.459c-1.712,-0.767 -3.251,-0.507 -4.618,0.778l-7.437,2.836c-0.603,0.848 -3.106,0.357 -3.208,-0.251c-18.721,-49.086 -9.937,-58.7 -16.949,-77.084c-2.003,-11.885 1.241,-11.278 11.13,-18.497c3.521,-1.872 6.294,6.376 8.354,7.299l-0.908,-5.387c0.219,-7.199 -2.644,-9.844 4.471,-11.043c12.402,-13.784 9.973,-19.438 44.077,-34.339c9.252,-7.391 37.39,-10.706 46.04,-13.3l14.234,-4.773c1.539,-0.259 3.422,-0.049 5.647,0.631c0.431,-0.073 5.387,-0.908 5.387,-0.908c10.109,-2.761 9.988,-0.108 27.465,3.286c0.553,-0.093 2.377,1.691 1.799,1.28c0.778,4.618 1,9.066 0.666,13.343c0.649,3.848 -0.674,8.174 -0.882,8.855c0.508,14.755 -9.358,36.787 -10.706,39.796l-0.64,0.899c-3.845,2.231 -3.926,4.883 -0.242,7.956c1.459,2.393 1.421,5.301 -0.112,8.725c0.03,16.531 -0.707,16.408 -7.385,31.321c-1.009,0.736 -0.215,1.391 -10.758,11.311l-2.542,13.092c-1.762,1.286 -4.078,6.459 -4.35,7.065c-2.646,3.084 -6.405,5.828 -11.276,8.232c-5.376,7.555 -10.279,4.761 -9.218,11.052c3.365,5.519 2.456,6.463 -3.061,10.014c-1.789,0.571 -13.67,4.362 -21.282,9.919c-12.967,6.188 -12.65,6.506 -14.744,6.442l-12.193,-1.903c-0.686,-0.94 -2.488,-3.802 -5.405,-8.587c-0.346,-2.052 -1.118,-3.505 -2.318,-4.358l-0.64,0.899Zm-51.616,-231.124c0.167,-2.139 0.836,-10.694 1.003,-12.833c0.58,-2.673 1.603,-5.233 2.231,-7.895c0.604,-2.564 1.381,-5.133 1.461,-7.766c0.252,-0.184 0,0 -0.649,-3.848c0.218,-1.006 0.074,-0.951 1.003,-12.833c1.447,-3.938 2.168,-7.489 2.162,-10.654c-0.519,-3.079 0.631,-5.647 3.45,-7.705l1.15,-2.568l1.142,-7.316c-0.006,-3.165 1.704,-3.981 5.128,-2.447c3.246,-2.658 2.9,-4.71 -1.038,-6.157c-2.398,-1.706 -2.831,-4.272 -1.297,-7.696c-3.074,-0.057 -38.848,-0.714 -36.207,-12.894c0.334,-4.278 0.329,-7.443 -0.017,-9.495c0.427,-0.6 0.637,-2.482 0.631,-5.647l0.77,-0.13l4.306,-8.378c1.177,-1.654 -3.293,-2.617 -2.542,-9.332c3.456,-4.856 3.436,-15.797 3.433,-17.2c0.308,-1.419 2.927,-13.496 4.972,-17.459c0.086,-0.552 0.761,-4.877 2.041,-6.676l0.77,-0.13c0.086,0.513 0.346,2.052 0.519,3.079c2.911,1.62 5.35,2 7.316,1.142c5.298,-3.004 6.745,-6.941 4.341,-11.813c-2.283,-8.36 5.413,-19.335 14.736,-11.19c11.288,-1.902 24.758,-3.381 40.41,-4.436c19.757,-1.747 37.334,-2.335 52.733,-1.764c5.73,-0.438 8.172,1.525 7.324,5.889c-0.167,2.139 -0.836,10.694 -1.003,12.833c-0.438,3.311 -4.276,32.324 -8.138,40.946c-4.998,16.35 -2.742,16.71 -11.233,31.97c-0.376,1.938 -2.53,0.711 -10.481,22.345c-1.521,1.6 -2.415,3.71 -3.84,5.396c-1.444,1.709 -2.828,3.591 -4.739,4.756l-1.142,7.316c-3.804,3.999 -25.357,26.662 -40.445,55.889c-2.618,12.073 2.027,14.539 -8.302,21.186c-1.284,1.805 -2.928,3.329 -4.289,5.076c-1.244,1.596 -2.693,3.1 -3.52,4.946c-0.172,2.205 -1.637,4.13 -2.106,6.291c-0.428,1.974 -1.375,4.181 -0.566,6.032l0.009,4.748l-8.475,-3.321c-2.878,-2.048 -4.367,-2.43 -6.148,5.785c0.092,3.678 -2,5.35 -6.278,5.016c-1.539,0.259 -2.522,0.689 -2.949,1.288c-9.318,3.554 -13.102,1.071 -10.152,-8.578c4.624,-4.862 2.333,-5.361 -1.046,-10.905c-0.907,-2.075 3.452,-12.947 3.452,-12.947c6.254,-6.157 10.107,-9.917 10.107,-9.917Zm-81.902,260.75c-0.246,0.805 -0.32,1.661 -0.343,2.503c-0.108,4.066 1.312,3.51 4.208,6.343c-0.268,-6.287 -0.536,-12.574 -0.804,-18.86c-0.06,0.212 -0.151,0.127 -1.407,2.368c-0.681,1.216 0.182,5.065 -1.654,7.646Zm101.428,-107.324c0.882,-2.887 -1.356,-8.055 -1.638,-8.705c-1.555,-3.59 -2.123,-3.185 -4.805,-6.039c-0.326,1.966 -3.274,8.669 -0.698,11.442c0.596,0.642 7.083,3.261 7.141,3.302Zm2.118,36.052c-0.144,-0.021 -1.524,-0.31 -1.539,0.259c-0.003,0.11 0.472,1 0.005,2.67c-0.054,0.191 -0.246,0.34 -0.256,0.538c-0.032,0.653 0.137,1.303 0.132,1.957c-0.005,0.672 -0.272,0.611 -0.383,1.252c-0.041,0.24 0.053,0.493 -0,0.731c-0.073,0.327 -0.34,0.599 -0.372,0.932c-0.03,0.314 0.222,0.613 0.192,0.927l3.008,0.1c-0.54,-7.898 -0.662,-8.624 -0.787,-9.365Zm-1.055,-15.652c-0.187,-0.008 -1.859,-0.079 -2.308,0.389c-0.108,0.112 0.121,2.1 0.036,2.566c-0.189,1.034 -0.495,2.044 -0.668,3.081l1.669,0.51c0.944,-5.476 1.115,-6.036 1.271,-6.546Z" style="fill:#b2e8f5;fill-rule:nonzero;"/>
        <path d="M2191.11,2097.063c-4.203,-6.151 -8.653,-7.512 -13.352,-4.082c-1.026,0.173 -1.966,0.859 -2.819,2.058c-2.133,2.998 -5.595,4.373 -10.386,4.125c-4.191,0.179 -8.596,0.657 -13.213,1.435c-4.618,0.778 -9.406,2.113 -14.364,4.004c-6.924,2.75 -12.868,3.488 -17.831,2.214c-1.712,-0.767 -3.765,-0.421 -6.157,1.038c-4.618,0.778 -9.364,1.578 -14.238,2.4c-4.874,0.821 -9.321,1.835 -13.339,3.04c-5.558,1.464 -11.692,3.421 -18.402,5.872c-6.711,2.45 -13.827,4.837 -21.351,7.16c-9.576,2.669 -19.023,5.317 -28.342,7.943c-9.319,2.626 -19.153,4.547 -29.501,5.763l-12.314,2.075c-0.098,-6.843 -0.153,-13.43 -0.164,-19.76c-0.011,-6.33 0.063,-12.147 0.225,-17.451c1.453,-0.773 3.462,-1.375 6.027,-1.807c-2.658,-3.246 -4.373,-5.595 -5.145,-7.048c-0.773,-1.453 -1.205,-4.018 -1.297,-7.696c-0.438,-5.73 -0.726,-11.354 -0.865,-16.871c-0.138,-5.517 -0.683,-11.098 -1.634,-16.742c-0.179,-4.191 -0.721,-8.189 -1.626,-11.994c-0.905,-3.805 -1.66,-7.503 -2.266,-11.095c-0.692,-4.105 -0.956,-8.018 -0.791,-11.739c0.164,-3.721 1.443,-6.311 3.835,-7.77c2.22,-2.485 3.69,-5.503 4.41,-9.054c0.721,-3.551 1.205,-7.722 1.453,-12.513c-4.024,-1.96 -7.665,-4.776 -10.922,-8.449c2.473,-4.11 5.013,-7.045 7.619,-8.803c2.606,-1.758 6.44,1.421 11.501,9.538c1.793,-1.885 3.414,-4.005 4.864,-6.36c1.45,-2.355 0.846,-5.155 -1.812,-8.401c4.704,-0.265 7.032,-2.109 6.983,-5.53c-0.049,-3.422 -0.12,-6.971 -0.212,-10.649c3.194,15.819 6.098,25.224 8.712,28.213c2.614,2.989 4.605,3.841 5.971,2.555c2.133,-2.998 4.824,-5.034 8.073,-6.109c3.249,-1.075 5.856,-2.042 7.822,-2.901c1.107,-2.825 2.129,-5.372 3.066,-7.64c0.937,-2.269 1.489,-4.472 1.656,-6.611c1.626,0.254 3.038,0.807 4.237,1.66c1.199,0.853 2.655,1.663 4.367,2.43c-0.68,2.225 -1.534,3.424 -2.56,3.597c2.225,0.68 4.237,1.66 6.036,2.94c1.107,-2.825 3.243,-4.24 6.408,-4.246c3.165,-0.006 4.745,-1.591 4.739,-4.756c-1.799,-1.28 -3.554,-2.303 -5.266,-3.07c3.159,-3.171 6.277,-5.807 9.352,-7.908c3.076,-2.101 5.767,-4.138 8.073,-6.109c0,0 0.77,-0.13 2.309,-0.389c1.026,-0.173 1.946,-0.196 2.759,-0.069c0.813,0.127 1.476,0.147 1.989,0.061c5.725,-3.603 12.395,-4.727 20.01,-3.372c4.024,1.96 6.63,0.202 7.817,-5.275c-5.304,-0.161 -8.045,-2.338 -8.224,-6.529l2.56,-3.597c4.105,-0.692 7.182,-2.002 9.231,-3.93c2.049,-1.928 3.927,-4.092 5.634,-6.49c2.986,-4.197 7.005,-5.402 12.055,-3.615c3.424,1.534 6.549,2.854 9.374,3.961c2.825,1.107 5.906,2.171 9.244,3.191c1.28,-1.799 2.303,-3.554 3.07,-5.266c-2.225,-0.68 -4.6,-1.467 -7.126,-2.361c-2.525,-0.894 -4.644,-1.724 -6.356,-2.491c0.254,-1.626 1.107,-2.825 2.56,-3.597c1.879,-1.372 2.903,-3.128 3.07,-5.266c0.167,-2.139 -0.435,-4.148 -1.807,-6.027l-6.166,-3.71c-0.853,1.199 -2.264,1.437 -4.233,0.713c-1.969,-0.724 -3.806,0.114 -5.513,2.512c-0.34,1.113 -1.067,1.499 -2.179,1.159c-1.113,-0.34 -2.012,-0.98 -2.698,-1.92c-0.686,-0.94 -1.137,-2.051 -1.353,-3.334c-0.216,-1.283 -0.624,-2.137 -1.224,-2.564c-0.346,-2.052 -1.118,-3.505 -2.318,-4.358l-14,-7.93c-2.225,-0.68 -4.941,-0.355 -8.146,0.977c-3.205,1.332 -5.191,2.854 -5.958,4.566c-1.787,5.05 -4.863,7.152 -9.227,6.304c-0.6,-0.427 -1.626,-0.254 -3.079,0.519c-1.453,0.773 -2.692,1.245 -3.718,1.418c-1.026,0.173 -2.074,0.218 -3.143,0.134c-1.069,-0.084 -2.117,-0.039 -3.143,0.134c-1.113,-0.34 -2.888,-0.7 -5.327,-1.081c-2.439,-0.381 -4.598,0.115 -6.477,1.487c-1.966,0.859 -3.762,1.162 -5.387,0.908c-1.626,-0.254 -3.551,-0.721 -5.777,-1.401c-5.05,-1.787 -8.855,-0.882 -11.415,2.715c-0.254,1.626 -1.15,2.568 -2.689,2.828c-4.958,1.891 -10.299,4.638 -16.024,8.241c-6.238,3.69 -12.138,4.684 -17.702,2.983c-6.399,8.993 -12,10.201 -16.802,3.623c-5.044,1.378 -9.939,2.862 -14.684,4.453c-4.745,1.591 -9.426,2.776 -14.044,3.554c-5.217,0.352 -10.348,1.216 -15.393,2.594c-5.044,1.378 -10.219,1.986 -15.522,1.825c-4.364,-0.847 -9.177,-1.224 -14.437,-1.129c-5.261,0.095 -10.116,-0.538 -14.567,-1.898c-3.938,-1.447 -6.8,0.355 -8.587,5.405c-0.594,2.738 -1.361,4.451 -2.3,5.137c-4.185,3.344 -6.829,8.01 -7.93,14c1.372,1.879 2.444,3.546 3.217,4.998c0.773,1.453 1.545,2.906 2.318,4.358c1.372,1.879 1.61,3.29 0.713,4.233c-0.896,0.943 -1.771,2.013 -2.625,3.213c2.917,4.785 5.599,9.742 8.046,14.87c2.447,5.128 1.838,10.903 -1.829,17.325c0,0 3.589,21.293 4.28,25.398c4.624,2.387 6.382,4.993 5.275,7.817c-1.447,3.938 -1.376,7.487 0.212,10.649c1.588,3.162 3.155,6.196 4.7,9.102c0.773,1.453 1.288,2.949 1.548,4.488c0.259,1.539 0.519,3.079 0.778,4.618c0.617,9.922 1.234,19.843 1.85,29.765c0.617,9.922 0.164,19.76 -1.358,29.514c-0.254,1.626 -0.336,3.486 -0.246,5.582c0.089,2.096 0.05,4.213 -0.117,6.352c0.519,3.079 0.565,4.918 0.138,5.517c-2.473,4.11 -3.299,8.603 -2.478,13.477c0.821,4.874 1.835,9.321 3.04,13.339c0.432,2.565 0.95,4.853 1.552,6.862c0.602,2.009 0.863,4.34 0.783,6.992l0.666,13.343c0.173,1.026 0.517,2.287 1.033,3.783c0.516,1.496 0.604,2.8 0.264,3.913c-1.101,5.99 -1.005,12.042 0.29,18.156c1.294,6.114 2.247,12.549 2.858,19.306c-0.334,4.278 -0.241,8.747 0.281,13.408c0.522,4.661 0.146,9.473 -1.129,14.437c-1.28,1.799 -1.147,4.151 0.398,7.056c1.545,2.906 2.342,6.069 2.391,9.491c0.049,3.422 0.376,6.928 0.981,10.52c0.265,4.704 0.399,7.848 0.402,9.43c0.003,1.583 1.25,5.066 3.74,10.451c0,0 1.665,9.877 2.4,14.238c0.735,4.361 0.935,8.681 0.601,12.958c-0.254,1.626 -0.592,3.53 -1.016,5.712c-0.424,2.182 -0.163,4.513 0.783,6.992c1.891,4.958 2.326,9.106 1.306,12.444c-1.954,7.189 -2.411,14.653 -1.371,22.393c1.041,7.74 0.071,15.29 -2.91,22.652c0,0 -0.128,0.022 -0.385,0.065c-0.257,0.043 -0.342,0.321 -0.255,0.834l5.681,19.621c1.631,3.419 2.32,5.941 2.067,7.567c-0.34,1.113 -0.98,2.012 -1.92,2.698c-0.94,0.686 -1.879,1.372 -2.819,2.058c0.346,2.052 0.862,3.548 1.548,4.488l0.908,5.387c0.346,2.052 1.205,4.018 2.577,5.898c3.257,3.672 4.592,8.46 4.004,14.364c-0.34,1.113 -0.337,2.695 0.009,4.748c0.432,2.565 0.435,4.148 0.009,4.748c-0.68,2.225 -0.847,4.364 -0.502,6.416c0.346,2.052 0.692,4.105 1.038,6.157c-0.865,-5.131 0.839,-9.112 5.111,-11.942l14.9,8.57c-1.534,3.424 -3.798,4.861 -6.793,4.311c-2.995,-0.551 -5.559,0.673 -7.692,3.671c1.459,2.393 3.044,3.972 4.756,4.739c1.712,0.767 3.424,1.534 5.137,2.3c1.366,-1.286 3.329,-3.727 5.889,-7.324c2.906,-1.545 5.171,-2.191 6.797,-1.937c3.251,0.507 5.18,2.557 5.785,6.148c-0.254,1.626 -0.401,3.102 -0.441,4.428c-0.04,1.326 -1.257,2.718 -3.649,4.177c2.652,0.081 4.812,0.376 6.481,0.886c1.669,0.51 3.316,0.892 4.942,1.146c1.62,-2.911 2.815,-4.432 3.584,-4.562c0.77,-0.13 2.14,0.958 4.112,3.264c2.571,2.733 4.626,3.969 6.166,3.71c3.765,0.421 7.613,-0.228 11.545,-1.946c2.906,-1.545 5.983,-2.855 9.231,-3.93c3.249,-1.075 5.726,-2.812 7.433,-5.21c3.165,-0.006 6.307,-0.931 9.426,-2.776c3.119,-1.845 6.174,-3.283 9.166,-4.315l0.77,-0.13c1.539,-0.259 3.014,-0.904 4.423,-1.933c1.41,-1.029 2.841,-1.93 4.294,-2.702c7.858,-6.601 16.577,-9.653 26.159,-9.158c2.652,0.081 5.089,-0.33 7.312,-1.232c2.222,-0.902 3.887,-2.766 4.994,-5.591c1.453,-0.773 3.055,-1.438 4.808,-1.998c1.753,-0.559 3.355,-1.225 4.808,-1.998c5.212,-3.517 11.579,-6.437 19.103,-8.76c4.445,-1.804 8.59,-3.822 12.435,-6.053c3.845,-2.231 8.42,-3.266 13.724,-3.104l1.28,-1.799c5.552,-4.629 11.49,-8.532 17.814,-11.709c6.324,-3.177 12.692,-6.096 19.103,-8.76c1.366,-1.286 2.904,-2.336 4.613,-3.152c1.709,-0.816 2.648,-2.293 2.815,-4.432c1.28,-1.799 2.433,-2.785 3.459,-2.957c2.652,0.081 4.446,-1.013 5.383,-3.282c0.937,-2.269 1.745,-4.515 2.426,-6.741c-3.424,-1.534 -6.416,-0.502 -8.976,3.096c-0.346,-2.052 -1.548,-4.488 -3.606,-7.307l-2.292,9.884c-1.626,-0.254 -3.123,-0.529 -4.492,-0.826c-1.369,-0.297 -2.61,-0.615 -3.723,-0.956c1.701,-5.563 1.735,-10.054 0.104,-13.473c-0.346,-2.052 0.507,-3.251 2.56,-3.597c1.879,-1.372 3.695,-2.338 5.448,-2.897c1.753,-0.559 3.612,-1.268 5.578,-2.127c-0.254,1.626 -0.272,3.08 -0.056,4.363c0.216,1.283 -0.016,3.037 -0.696,5.262c2.652,0.081 5.409,-0.78 8.271,-2.581c2.862,-1.802 5.533,-3.175 8.012,-4.121c3.592,-0.605 4.402,-2.061 2.43,-4.367c-0.773,-1.453 -1.672,-2.093 -2.698,-1.92c-1.026,0.173 -1.753,0.559 -2.179,1.159l-5.509,4.886c-3.678,0.092 -5.35,-2 -5.016,-6.278c2.733,-2.571 5.402,-4.736 8.008,-6.494c2.606,-1.758 5.534,-2.384 8.786,-1.876l4.618,-0.778c-0.173,-1.026 -0.496,-2.159 -0.969,-3.398c-0.473,-1.239 -0.882,-2.885 -1.228,-4.938c1.712,0.767 3.168,1.577 4.367,2.43c1.199,0.853 2.355,1.45 3.468,1.79c1.113,0.34 2.417,0.252 3.913,-0.264c1.496,-0.516 2.757,-0.86 3.783,-1.033c2.658,3.246 4.543,5.039 5.655,5.379c1.113,0.34 2.822,-0.476 5.128,-2.447l-2.698,-1.92c-3.424,-1.534 -4.583,-3.713 -3.476,-6.538c0.767,-1.712 2.689,-2.828 5.768,-3.347c1.113,0.34 2.695,0.337 4.748,-0.009l-1.816,-10.775c-1.199,-0.853 -2.505,-1.557 -3.917,-2.11c-1.412,-0.553 -2.675,-1 -3.788,-1.34c-4.353,5.483 -7.853,8.975 -10.503,10.476c-2.649,1.502 -5.386,1.699 -8.211,0.592c0.853,-1.199 1.578,-2.377 2.175,-3.533c0.597,-1.156 1.365,-2.077 2.305,-2.763c-1.799,-1.28 -3.469,-2.581 -5.011,-3.904c-1.542,-1.323 -3.126,-2.111 -4.752,-2.365c-1.712,-0.767 -3.466,-0.999 -5.262,-0.696c-1.796,0.303 -4.02,0.414 -6.672,0.333l0.752,-9.625c-2.139,-0.167 -3.55,0.071 -4.233,0.713c-0.683,0.643 -1.235,2.846 -1.656,6.611c-1.026,0.173 -1.986,1.522 -2.88,4.047c-0.894,2.525 -1.897,3.618 -3.009,3.277c-2.485,-2.22 -4.988,-2.985 -7.51,-2.296c-2.522,0.689 -5.236,1.806 -8.142,3.351c-5.212,3.517 -10.445,6.905 -15.7,10.165c-5.255,3.26 -10.831,6.179 -16.729,8.756c-8.803,4.122 -18.291,8.095 -28.464,11.921c-10.172,3.825 -20.303,7.115 -30.392,9.871c-6.924,2.75 -13.956,4.858 -21.096,6.326c-7.14,1.467 -14.815,2.893 -23.024,4.276c-2.052,0.346 -4.789,0.543 -8.211,0.592c-3.422,0.049 -6.458,0.033 -9.11,-0.048c-0.6,-0.427 -1.199,-0.853 -1.799,-1.28c-0.6,-0.427 -1.156,-0.597 -1.669,-0.51l-5.318,-31.555c-0.519,-3.079 -0.909,-6.179 -1.172,-9.3c-0.262,-3.122 -0.61,-5.965 -1.042,-8.531c0.588,-5.903 0.663,-11.72 0.225,-17.451c-0.438,-5.73 -0.833,-11.204 -1.185,-16.422l-0.7,-32.333c-0.086,-0.513 -0.28,-0.876 -0.579,-1.09c-0.3,-0.213 -0.45,-0.32 -0.45,-0.32c-0.184,-7.356 -0.219,-14.606 -0.104,-21.749c0.115,-7.143 0.124,-14.136 0.026,-20.979c-0.086,-0.513 0.21,-1.882 0.891,-4.108c0.167,-2.139 -0.138,-5.517 -0.917,-10.135c-1.205,-4.018 -0.293,-7.998 2.737,-11.938c3.03,-3.94 7.41,-6.13 13.14,-6.568c1.113,0.34 2.674,0.209 4.683,-0.393c2.009,-0.602 3.27,-0.947 3.783,-1.033c2.047,-3.511 3.367,-6.636 3.961,-9.374c4.624,2.387 8.796,3.662 12.517,3.827c3.721,0.164 7.591,-0.356 11.609,-1.561l23.08,-8.639c3.932,-1.718 7.629,-3.264 11.091,-4.639c3.462,-1.375 7.288,-2.152 11.48,-2.33c0,0 1.283,-0.216 3.848,-0.649c1.453,-0.773 3.162,-1.588 5.128,-2.447c1.966,-0.859 4.105,-0.692 6.416,0.502c1.199,0.853 2.439,0.381 3.718,-1.418c1.966,-0.859 3.397,-1.76 4.294,-2.702c0.896,-0.943 1.901,-1.244 3.014,-0.904c3.079,-0.519 5.686,-1.486 7.822,-2.901c2.136,-1.415 4.144,-2.809 6.023,-4.181c1.879,-1.372 3.674,-2.466 5.383,-3.282c1.709,-0.816 3.507,-0.327 5.392,1.466c-1.459,-2.393 -2.104,-4.658 -1.937,-6.797c0.167,-2.139 0.334,-4.278 0.502,-6.416c6.157,-1.038 10.651,0.579 13.482,4.851c1.118,3.505 3.816,5.425 8.094,5.759c2.133,-2.998 3.883,-5.14 5.249,-6.425l9.253,7.939c0.853,-1.199 1.728,-2.27 2.625,-3.213c0.896,-0.943 1.815,-1.757 2.754,-2.443c2.398,1.706 6.379,3.41 11.942,5.111c2.646,-3.084 6.151,-4.203 10.515,-3.355c1.113,0.34 2.289,0.274 3.528,-0.199c1.239,-0.473 2.885,-0.882 4.938,-1.228l-3.606,-7.307c1.879,-1.372 3.675,-1.675 5.387,-0.908c1.712,0.767 3.424,1.534 5.137,2.3c2.819,-2.058 4.869,-3.987 6.148,-5.785c-0.686,-0.94 -1.372,-1.879 -2.058,-2.819c-0.686,-0.94 -1.585,-1.58 -2.698,-1.92l5.759,-8.094c-0.945,-2.479 -2.38,-3.161 -4.302,-2.045c-1.923,1.116 -4.083,0.82 -6.481,-0.886c3.159,-3.171 4.652,-5.269 4.479,-6.295c-0.519,-3.079 -0.223,-5.239 0.886,-6.481c1.11,-1.242 2.305,-2.763 3.584,-4.562l2.309,-0.389c0.773,1.453 1.375,3.462 1.807,6.027c2.479,-0.945 5.214,-1.934 8.207,-2.966c2.992,-1.032 5.341,-2.747 7.048,-5.145c-3.938,-1.447 -7.319,-2.724 -10.144,-3.831c-2.825,-1.107 -5.95,-2.427 -9.374,-3.961c1.706,-2.398 3.799,-4.07 6.278,-5.016c2.479,-0.945 4.572,-2.617 6.278,-5.016c-6.935,-3.58 -13.332,-4.745 -19.189,-3.494c-5.857,1.251 -11.692,3.421 -17.503,6.512Zm12.867,19.993c-2.151,7.036 -1.807,7.105 -3.952,14.121l-2.309,0.389c-0.432,-2.565 -1.548,-4.488 -3.347,-5.768c-0.368,-0.504 -2.058,-2.819 -5.655,-5.379c3.968,-0.669 8.316,-3.887 9.187,-4.195c0.463,-0.164 2.801,-0.991 6.076,0.831Zm-247.512,353.563c0.329,-0.31 3.074,-2.893 4.276,-3.689c1.006,-0.666 4.44,-0.929 4.19,2.262c0.259,1.539 -2.544,2.012 -2.819,2.058c-0.77,0.13 -5.198,-0.561 -5.647,-0.631Zm89.254,-522.39l8.077,-3.736c-0.071,0.455 -0.766,4.908 -1.851,5.457c-1.12,0.566 -5.755,-1.51 -6.226,-1.721Zm19.103,-8.76c-0.259,-1.539 -0.732,-2.779 -1.418,-3.718c0.363,-0.061 0.64,-0.899 0.64,-0.899c0.173,1.026 0.859,1.966 2.058,2.819l-1.28,1.799Zm79.374,466.269c-0.427,0.6 -0.597,1.156 -0.51,1.669l-0.519,-3.079c0.086,0.513 0.258,0.748 0.515,0.705c0.257,-0.043 0.428,0.192 0.515,0.705Zm-1.217,-458.07c-2.027,-4.638 -3.508,-2.546 -8.475,-3.321c0.692,4.105 -0.758,6.46 -4.35,7.065c-2.316,-0.181 -2.541,-0.177 -3.654,1.803c-0.867,1.542 -1.339,3.31 -2.365,4.752l10.775,-1.816c0.427,0.803 2.318,4.358 4.894,10.256c1.706,-2.398 3.499,-4.283 5.379,-5.655c0.183,7.28 3.054,5.678 10.022,7.809l11.553,2.802c0.299,0.091 0.283,-0.048 3.848,-0.649c-1.13,-6.705 -0.58,-8.092 -7.203,-9.867c-6.43,-1.723 -6.741,-2.427 -7.843,-8.968c2.479,-0.945 4.785,-2.917 6.918,-5.915c-11.876,0.022 -12.233,-1.765 -19.5,1.703Zm47.153,458.243c0.6,0.427 2.998,2.133 3.597,2.56c4.537,1.874 7.999,0.499 10.386,-4.125c0.594,-2.738 1.254,-4.301 1.98,-4.687c0.726,-0.386 2.416,-0.539 5.067,-0.458c-2.231,-3.845 -5.056,-4.952 -8.475,-3.321c-1.966,0.859 -4.466,1.676 -7.502,2.452c-3.035,0.775 -4.72,3.302 -5.055,7.58Zm-34.251,-489.703c3.119,3.648 3.635,2.949 7.964,4.99c3.343,1.576 4.039,4.697 2.456,9.876c3.251,0.507 5.99,1.101 8.215,1.781c-3.339,-8.754 -2.638,-9.566 -4.894,-10.256c-2.988,-1.338 -2.608,-1.825 -6.555,-6.019c-2.145,-3.332 -4.54,-3.456 -7.186,-0.372Zm-112.159,62.435c0.978,-0.324 9.547,-3.16 11.795,-5.154c2.046,-1.815 2.155,-5.403 2.171,-5.906c-3.769,2.752 -7.605,6.967 -13.966,11.06Zm169.214,407.595c0.588,-5.903 -2.836,-7.437 -10.273,-4.601c0.861,0.263 6.676,2.041 10.273,4.601Zm-11.752,-41.552c0.186,-0.609 1.901,-6.22 0.792,-7.925c-1.001,-1.538 -3.896,-3.149 -4.276,-3.36c2.275,3.116 -0.002,6.207 -0.151,6.66c-0.858,2.612 3.207,4.432 3.636,4.625Zm-195.278,-346.215c-0.071,-0.163 -0.644,-1.474 -1.383,-1.746c-0.819,-0.301 -2.478,2.139 -4.829,1.581c-4.201,-0.998 -7.489,-9.668 -8.567,-12.383c1.059,0.754 3.991,-2.336 5.93,-2.385c0.407,-0.01 2.721,-0.068 4.447,2.466c2.268,3.328 4.161,11.436 4.401,12.466Zm152.682,-75.596c-2.06,2.895 -0.659,5.528 -0.631,5.647c0.868,-0.567 1.975,-0.692 2.843,-1.258c0.078,-0.051 0.836,-1.705 0.011,-2.871c-0.633,-0.895 -2.022,-1.439 -2.222,-1.518Zm43.192,467.617c-4.078,-4.334 -6.08,-0.76 -6.416,-0.502l6.416,0.502Zm-214.674,-287.541l-0.64,0.899l1.928,2.049c1.539,-0.259 3.079,-0.519 4.618,-0.778c-3.338,-1.02 -5.307,-1.744 -5.906,-2.171Zm40.082,-114.398c-0.396,-0.542 -0.854,-1.108 -1.434,-1.465c-0.381,-0.235 -1.264,-0.455 -1.264,-0.455c-0.853,1.199 -1.536,1.842 -2.049,1.928l2.698,1.92c0.033,-0.031 0.999,-1.751 2.049,-1.928Zm42.174,-22.146l-0.259,-1.539l-1.62,-0.222c-0.285,0.125 -0.512,0.363 -0.689,0.611c-0.363,0.061 -0.64,0.899 -0.64,0.899l3.208,0.251Zm135.393,366.597l-1.28,1.799c1.601,1.139 1.87,0.653 3.468,1.79l0.64,-0.899c-1.601,-1.139 -1.23,-1.553 -2.828,-2.689Zm-55.948,-425.893c-0.186,0.031 -0.608,0.102 -0.758,-0.095c-0.168,-0.22 -0.049,-0.334 -0.318,-0.416c-0.178,-0.054 -0.421,-0.028 -0.593,0.001c-0.075,0.246 -0.551,1.802 -0.251,3.208c0.156,0.73 1.145,0.599 1.669,0.51c0.427,-0.6 0.51,-1.669 0.251,-3.208Zm-49.36,21.774c2.29,2.045 4.543,4.143 6.62,6.404c0.514,0.56 2.929,3.188 4.57,8.332c1.015,6.025 11.379,1.248 12.833,1.003c2.992,-1.032 3.716,-3.001 2.171,-5.906c-4.537,-1.874 -9.844,-3.618 -15.92,-5.232c0.943,-1.828 1.947,-3.643 2.62,-5.586c0.133,-0.385 0.765,-2.208 -1.228,-4.938c1.372,1.879 2.955,1.877 4.748,-0.009c0.422,-0.593 2.56,-3.597 6.918,-5.915c-0.686,0.029 -6.224,0.265 -8.466,1.427c-0.392,0.203 -2.168,1.123 -3.2,4.497l0.13,0.77c-1.286,-1.366 -2.142,-1.75 -2.568,-1.15l-9.227,6.304Z" style="fill:#b2e8f5;fill-rule:nonzero;"/>
        <path d="M2575.15,2315.488c1.199,0.853 1.842,1.536 1.928,2.049l12.063,1.133l3.329,-3.727c5.575,0.17 3.993,-1.805 7.558,-6.814c1.96,-4.024 1.228,-6.803 -2.196,-8.336c-1.199,-0.853 -2.142,-1.75 -2.828,-2.689c2.646,-3.084 5.042,-2.96 7.186,0.372c3.597,2.56 6.163,2.127 7.696,-1.297l-13.36,-8.829c0.415,-0.928 3.738,-8.347 6.909,-10.662l-15.531,-2.923c-0.605,-3.592 -0.824,-6.457 -0.657,-8.596c-3.334,0.562 -32.325,5.448 -42.079,3.926l-0.649,-3.848c-4.526,4.456 -6.785,8.267 -6.78,11.432c0.346,2.052 0.049,3.422 -0.891,4.108l-7.558,6.814c-20.442,7.796 -20.306,5.702 -39.228,14.732l-6.287,0.268l-9.625,-0.752l-0.64,0.899c2.439,0.381 6.427,3.218 6.935,3.58c0,0 0.259,1.539 0.259,1.539c-8.044,2.412 -14.996,7.585 -22.691,10.948c-10.007,4.373 -19.715,14.559 -30.388,12.245c-14.769,9.505 -14.42,8.762 -32.057,11.735l14.087,-15.038c-2.819,2.058 -5.768,3.347 -8.846,3.865l-20.65,4.272c-0.211,0.297 -1.92,2.698 -3.459,2.957c-3.419,1.631 -6.241,2.107 -8.466,1.427c-4.497,-3.2 -8.162,-0.524 -8.725,-0.112c-2.036,-2.381 -5.599,-2.936 -7.964,-4.99c-2.023,-1.756 -4.57,-3.637 -5.016,-6.278c0.171,-5.629 -0.956,-11.241 -0.865,-16.871c0.025,-1.572 0.299,-3.277 1.211,-4.557c3.494,-7.448 1.773,-12.963 -5.163,-16.543c-0.853,1.199 -1.237,2.055 -1.15,2.568c-0.295,9.7 2.33,10.053 -3.303,17.97c-0.94,0.686 -1.15,2.568 -0.631,5.647l1.574,18.731c-5.131,0.865 -8.129,-1.268 -8.993,-6.399l-5.431,-22.83c-5.228,-19.139 -3.675,-19.02 2.24,-38.369l-3.718,1.418c-2.393,1.459 -3.889,1.975 -4.488,1.548c-0.686,-0.94 -1.202,-2.436 -1.548,-4.488c1.874,-4.537 0.242,-7.956 -4.894,-10.256l6.65,-12.202l2.594,15.393c4.024,-2.453 3.343,-29.623 3.278,-32.212c-0.346,-2.052 -0.349,-3.635 -0.009,-4.748l-0.207,-43.497l1.781,-8.215l-0.432,-26.046l1.02,-3.338c1.928,2.049 2.97,8.227 3.096,8.976c4.374,10.011 3.978,9.783 4.894,10.256l-2.594,-15.393c0.427,-0.6 0.467,-1.926 0.121,-3.978l-0.796,-14.113l-21.697,-6.633c0.081,-2.652 0.404,-13.26 0.484,-15.912l-0.787,-9.365l-0.026,-14.243c7.973,-0.34 7.627,11.028 7.593,12.176c5.65,2.214 8.394,-3.914 8.717,-4.635c1.366,-1.286 2.816,-3.641 4.35,-7.065c-0.173,-1.026 -0.046,-1.839 0.381,-2.439c-1.199,-0.853 -2.911,-1.62 -5.137,-2.3c0.132,-10.262 7.352,-7.096 8.95,-17.338c-0.259,-1.539 0.037,-2.908 0.891,-4.108c8.111,15.254 5.179,24.847 4.54,26.937c-3.962,7.12 -1.175,6.799 1.565,13.983c0.168,-0.551 1.658,-5.424 0.372,-7.186c0.215,-7.071 -2.157,-7.245 2.672,-12.323c2.366,-0.399 -5.957,-20.956 -5.439,-27.577c0.335,-1.545 -0.131,-1.424 -0.164,-19.76l-1.029,-1.41c-5.161,-4.61 -2.19,-14.327 -1.825,-15.522l0.995,-17.58c0.478,-1.563 3.572,-11.683 -1.064,-20.4c-2.156,-9.662 -3.116,-20.054 -2.879,-31.174l-0.787,-9.365c-2.011,-11.929 0.671,-19.225 1.245,-20.789c0.427,-0.6 0.51,-1.669 0.251,-3.208c-0.659,-0.903 -7.94,-4.846 -8.483,-8.068c1.735,-5.675 -2.983,-7.117 -3.606,-7.307c-2.398,-1.706 -3.641,-2.816 -3.727,-3.329c-2.078,-6.024 -2.308,-6.066 -8.224,-6.529l-7.056,0.398c-4.328,-0.132 -6.372,-5.984 -8.743,-9.607c-2.661,-4.067 -2.494,-10.04 -6.183,-13.205l-3.987,-4.869c-4.907,-4.667 -4.065,-5.943 -10.533,-6.14l-4.237,-1.66c-1.087,-0.971 -10.608,-9.476 -14.519,-11.008c-2.621,-1.353 -4.318,-4.099 -6.875,-5.569c-2.476,-1.424 -5.209,-3.475 -8.025,-3.001l-0.259,-1.539c-2.318,-4.358 -5.142,-5.465 -8.475,-3.321l-2.309,0.389c-1.609,-0.251 -18.812,-2.935 -20.27,1.833c3.491,11.642 2.855,12.12 1.323,21.939l-25.398,4.28c1.372,1.879 2.058,2.819 2.058,2.819c10.467,13.102 21.393,54.569 22.691,59.495c0.735,1.383 4.764,8.959 4.782,18.981c0.865,5.131 1.727,8.679 2.586,10.645c10.912,12.763 12.607,52.518 12.807,57.204c0.883,5.239 9.209,54.644 7.947,65.938l2.594,15.393l0.942,24.377l3.511,25.528c7.087,16.219 5.585,23.953 5.18,26.038c-0.767,1.712 -0.551,2.995 0.649,3.848c1.05,0.584 7.014,3.903 4.773,14.234c0.024,13.202 -2.981,19.884 -1.617,27.975c0.891,2.337 6.027,15.803 3.649,31.045c3.419,-1.631 4.696,-5.013 3.831,-10.144c0.161,-5.304 2.251,-8.558 6.27,-9.763c0,0 0.34,-1.113 1.02,-3.338c-2.225,-0.68 -3.851,-0.934 -4.877,-0.761c0.449,-1.145 4.428,-11.299 3.822,-14.891c-1.718,-3.932 -1.724,-7.097 -0.017,-9.495c1.361,-4.451 1.652,-8.985 0.873,-13.603c-0.006,-3.165 1.701,-5.563 5.119,-7.195c1.195,4.092 -1.352,3.489 4.202,53.113c3.592,-0.605 5.777,1.401 6.555,6.019c-0.061,0.39 2.293,10.407 -1.626,23.227l1.954,16.292c0.259,1.539 1.167,6.927 1.427,8.466c-0.808,10.341 -0.111,46.531 -0.277,59.409c-1.169,2.265 4.49,17.593 2.741,25.657c-0.081,2.652 0.352,5.217 1.297,7.696l2.836,7.437c-8.797,0.221 -7.134,-2.212 -13.36,-8.829c-2.646,3.084 -2.597,6.506 0.147,10.265c1.545,2.906 0.522,4.661 -3.07,5.266c-3.686,1.611 -4.909,-5.644 -5.016,-6.278c-3.419,1.631 -4.056,4.113 -1.911,7.446c0.086,0.513 -0.124,2.395 -0.631,5.647c-6.774,16.733 7.699,13.313 30.543,73.21c2.231,3.845 5.399,5.422 9.504,4.73c7.184,-0.013 12.892,6.868 19.967,8.112c2.121,0.373 4.07,-1.912 5.318,-3.667c-0.086,-0.513 0.81,-1.456 2.689,-2.828c8.198,-7.714 14.344,-15.081 18.437,-22.103c3.413,-4.797 7.555,-8.397 12.427,-10.801l21.533,-13.127c23.665,-5.629 47.142,-30.314 50.493,-33.838c-7.181,2.477 2.843,-11.61 3.442,-12.452l5.517,-0.138c-0.291,-1.728 0.803,-1.376 11.038,-18.914c3.467,1.06 2.695,-1.299 6.595,-1.956c42.654,-31.14 76.127,-28.523 83.122,-27.976c3.753,-5.909 9.867,-7.203 18.342,-3.883c0.502,-6.416 3.491,-9.031 8.968,-7.843Zm0,0c1.706,-2.398 3.073,-3.684 4.099,-3.857c0.101,0.231 1.142,2.614 -0.205,3.151c-0.46,0.183 -0.474,0.129 -3.894,0.706Zm-15.782,0.285c-1.669,-0.51 -6.499,0.304 -7.056,0.398c-3.338,-1.02 -3.684,-3.073 -1.038,-6.157c5.039,-4.543 12.006,-7.036 20.901,-7.48c0.1,0.137 0.321,-0.747 2.092,0.371c2.205,1.392 1.181,5.409 -1.054,5.786c-3.84,5.396 -12.618,6.876 -13.845,7.082Zm-295.965,-188.945c-0.374,-0.644 -0.743,-1.294 -1.038,-1.978c-4.755,-11.007 -2.732,-11.443 -3.242,-23.42c4.889,7.091 6.316,15.557 4.28,25.398Zm35.61,107.974c0.819,-7.324 6.219,-7.457 8.253,-4.087c2.763,4.578 -0.41,9.101 -3.942,8.831c-3.557,-0.272 -4.225,-4.238 -4.31,-4.744Zm-18.947,-46.671c2.662,6.092 2.933,10.578 2.99,11.529c0.163,2.701 -0.854,2.306 -2.705,4.252c-0.227,-1.308 -0.166,-2.655 -0.393,-3.963c-0.217,-1.251 -0.667,-2.452 -0.934,-3.693c-1.125,-5.233 -0.449,-7.089 -0.498,-7.866l1.539,-0.259Zm24.776,-64.329c-0.142,-0.844 -2.078,-6.534 -2.397,-7.99c-0.37,-1.689 -0.037,-1.717 -0.318,-3.425c0.169,0.188 6.559,3.969 2.715,11.415Zm-18.117,127.318c0.398,2.36 1.096,2.095 1.159,2.179c1.231,1.652 1.18,6.487 -1.48,7.367c-1.582,0.523 -1.401,-0.351 -1.625,-1.999c-0.084,-0.618 -0.549,-4.041 1.946,-7.547Zm55.327,84.072c1.852,-1.352 3.556,-2.168 3.589,-2.188l0.259,1.539l-3.848,0.649Zm-0.302,-166.163c-7.217,-5.097 -8.972,-3.043 -10.913,-3.701c0.653,6.255 -0.942,12.611 -0.29,18.866c0.627,6.004 3.333,11.651 4.099,17.638c1.868,14.592 2.497,29.317 3.787,43.971c0.181,2.062 -1.049,4.962 0.626,6.178c1.326,0.963 2.732,-3.74 4.058,-2.777c-0.54,-4.987 -3.225,-9.583 -3.765,-14.57c-1.049,-9.686 6.005,-40.698 6.798,-44.186c-10.374,-6.671 -11.144,-6.445 -10.797,-7.84c0.574,-2.305 6.644,-6.152 6.793,-6.524c0.558,-1.387 -0.304,-6.499 -0.398,-7.056Zm130.577,187.739c7.123,5.068 12.479,-1.98 19.21,-6.293c6.588,-4.221 6.09,-6.5 6.94,-7.613c-2.96,1.46 -3.377,0.52 -13.482,6.651c-7.868,4.773 -7.613,5.202 -12.668,7.254Zm-205.033,-136.408c-2.929,9.581 0.239,20.58 0.733,22.295c0.859,2.982 1.479,2.692 2.398,5.671c-0.162,-2.167 -0.842,-4.276 -0.987,-6.444c-0.186,-2.781 0.103,-5.577 -0.004,-8.362c-0.323,-8.398 -1.759,-12.163 -2.139,-13.16Zm300.566,37.785c-9.424,-1.47 -14.067,2.086 -14.623,2.464c-0.108,0.074 -0.294,0.118 -0.304,0.249c-0.077,0.984 0.13,1.976 0.053,2.959c2.744,-0.375 7.61,1.141 8.716,-0.377c1.396,-1.915 5.205,-4.399 6.157,-5.295Zm-227.33,16.357c0.813,0.127 2.524,1.199 2.439,0.381c-0.465,-4.429 -3.28,-8.395 -3.744,-12.824l1.306,12.444Zm22.881,23.055c-0.435,-1.14 -0.722,-2.333 -0.996,-3.522c-0.259,-1.125 -0.29,-2.298 -0.599,-3.41c-0.696,-2.509 -1.713,-4.922 -2.409,-7.431l-2.274,19.379c1.824,-1.457 3.871,-2.619 5.694,-4.076c0.288,-0.23 0.476,-0.587 0.584,-0.939Zm242.29,25.445c1.487,-2.09 3.187,-4.832 -0.741,-6.161c-6.263,-2.118 -7.445,4.059 -8.114,5.279c0.939,0.014 1.874,-0.174 2.813,-0.177c2.551,-0.008 5.573,0.916 6.042,1.059Zm-248.472,-179.536c-0.904,0.152 -0.765,-0.663 -1.669,-0.51l-1.401,5.777c-0.853,1.199 -0.68,2.225 0.519,3.079c0.108,0.639 1.395,1.265 2.083,0.745c0.601,-0.454 2.233,-3.312 2.146,-3.832c0.254,-1.626 -0.306,-3.378 -1.678,-5.258Zm257.129,141.669l0.318,-1.572c-0.413,-0.391 -0.424,-0.374 -5.334,-4.706l-3.71,6.166c1.418,0.087 2.817,0.386 4.235,0.473c1.72,0.106 4.135,-0.301 4.49,-0.361Zm-269.175,-133.306c-0.323,0.286 -0.646,0.577 -0.917,0.913c-4.526,5.612 -1.297,10.404 -0.856,12.05c0.372,-2.724 0.929,-5.42 1.301,-8.144c0.219,-1.599 0.346,-3.21 0.472,-4.819Zm14.026,22.172c-0.227,-0.289 -0.776,-0.986 -0.899,-0.64c-0.611,1.71 -0.437,3.609 -0.798,5.389c-0.361,1.777 -1.004,3.488 -1.364,5.265l2.439,0.381c0.042,-0.385 0.669,-2.18 0.627,-5.7c-0.049,-4.152 -0.089,-4.15 -0.004,-4.695Zm-0.839,103.036c0.306,-0.43 3.36,-4.722 2.897,-5.924c-0.343,-0.89 -3.73,-0.993 -4.065,-1.003l1.167,6.927Zm-0.674,-88.534c-0.023,0.297 -0.16,2.045 0.231,3.721c0.371,1.589 0.856,3.15 1.196,4.745c-0.133,-1.791 0.892,-4.105 -1.427,-8.466Zm143.246,98.54c-0.635,-0.802 -0.942,-0.737 -1.949,-0.29c-0.536,0.238 -1.062,0.503 -1.563,0.809c-2.943,1.795 -2.558,2.897 -2.896,3.727c0.927,-0.614 1.996,-1.9 6.408,-4.246Zm-139.848,-64.287c-0.187,0.003 -1.915,0.029 -2.309,0.389c-0.059,0.054 -1.445,3.428 0.651,4.823c0.346,0.23 2.384,0.147 2.566,0.175l-0.908,-5.387Zm-3.891,-93.532c-0.386,0.543 -0.774,1.086 -1.128,1.65c-0.478,0.764 -0.889,1.568 -1.367,2.332l3.403,1.405l-0.908,-5.387Zm-2.508,32.082c1.545,2.906 2.704,5.085 3.476,6.538c0.07,-0.449 0.722,-4.626 0.631,-5.647c-0.068,-0.768 -3.772,-0.88 -4.108,-0.891Zm-81.253,123.712c-0.257,0.043 -0.518,0.102 -0.778,0.082c-0.815,-0.064 -1.615,-0.269 -2.431,-0.332c0.046,1.839 0.092,3.678 0.138,5.517l1.669,0.51l1.401,-5.777Zm-5.751,83.285c0.364,-0.289 0.748,-0.595 0.969,-1.004c0.151,-0.281 0.094,-0.635 0.086,-0.954c-0.018,-0.718 -0.146,-1.431 -0.164,-2.149l-0.77,0.13c-0.021,0.261 0.031,0.525 0.009,0.786c-0.031,0.364 -0.131,0.72 -0.17,1.084c-0.123,1.136 0.012,1.941 0.04,2.108Zm62.16,-251.09c-0.123,-0.732 -1.875,-2.06 -1.928,-2.049c-1.004,0.204 -0.492,1.101 -0.64,1.632c-0.094,0.336 -0.326,0.631 -0.38,0.975c-0.038,0.241 0.037,0.49 -0,0.731c0.731,-0.319 1.423,-0.724 2.154,-1.043c0.254,-0.111 0.521,-0.199 0.795,-0.246Zm-60.17,145.486l1.401,-1.374c-0.026,-0.344 -0.057,-0.691 -0.026,-1.034c0.056,-0.615 0.23,-1.214 0.285,-1.829c-0.64,0.531 -1.028,0.195 -1.193,0.989c-0.122,0.588 -0.065,1.931 -0.468,3.248Zm-8.457,6.174l-1.193,0.989c-0.187,0.904 -0.026,0.915 -0.164,1.832c-0.072,0.477 -0.231,0.939 -0.303,1.416l1.539,-0.259c-0.032,-0.847 -0.198,-1.686 -0.229,-2.534c-0.016,-0.428 0.078,-1.062 0.35,-1.444Zm65.783,-163.845c0.381,-0.064 0.459,0.547 0.773,0.637c0.562,0.162 0.403,-3.711 0.465,-3.907c0.106,-0.336 0.344,-0.625 0.422,-0.968c-0.26,0.212 -0.828,0.289 -1.024,0.565c-0.244,0.344 -0.254,2.422 -0.636,3.672Zm34.962,104.126c-1.506,-1.071 -1.465,-1.537 -2.134,-1.172c-0.37,0.202 -0.273,0.737 -0.309,1.076c-0.033,0.316 -0.079,0.581 -0.214,0.875c-0.081,0.178 -0.449,0.393 -0.292,0.509c0.232,0.171 1.499,0.827 2.038,0.349c0.488,-0.433 0.724,-1.025 0.911,-1.638Zm-101.618,73.322l0,0Z" style="fill:#b2e8f5;fill-rule:nonzero;"/>
    </g>
</svg>
